<svg width="18" height="19" viewBox="0 0 18 19" fill="none" xmlns="http://www.w3.org/2000/svg">
<path d="M0.626831 18.1847H6.21345V6.62939L0.626831 12.1957V18.1847Z" fill="#422438"/>
<path d="M15.8152 2.38754C14.8812 1.38903 13.6198 0.75597 12.2585 0.602539L7.87195 4.97054H8.90339C8.97979 4.97054 9.06278 4.96267 9.14577 4.96267C9.22876 4.96267 9.29989 4.96267 9.3763 4.97054C10.9267 5.07948 11.974 6.26336 11.974 7.9893V18.1796H17.5566V7.19392C17.5619 6.44414 17.4608 5.69737 17.2563 4.97579C16.9877 4.01179 16.4939 3.12485 15.8152 2.38754V2.38754Z" fill="#422438"/>
<path d="M7.87198 1.06445H2.28931V6.62946H7.87198V1.06445Z" fill="#A23842"/>
</svg>
