<svg width="24" height="25" viewBox="0 0 24 25" fill="none" xmlns="http://www.w3.org/2000/svg">
<g clip-path="url(#clip0_3809_3340)">
<path opacity="0.3" d="M15 5.98535C15 5.15692 14.3284 4.48535 13.5 4.48535C12.6716 4.48535 12 5.15692 12 5.98535V15.9854C12 16.8138 12.6716 17.4854 13.5 17.4854C14.3284 17.4854 15 16.8138 15 15.9854V5.98535Z" fill="#FFF2D0"/>
<path opacity="0.3" d="M10 10.9854C10 10.1569 9.32843 9.48535 8.5 9.48535C7.67157 9.48535 7 10.1569 7 10.9854V15.9854C7 16.8138 7.67157 17.4854 8.5 17.4854C9.32843 17.4854 10 16.8138 10 15.9854V10.9854Z" fill="#FFF2D0"/>
<path d="M5 19.4854H20C20.5523 19.4854 21 19.9331 21 20.4854C21 21.0376 20.5523 21.4854 20 21.4854H4C3.44772 21.4854 3 21.0376 3 20.4854V4.48535C3 3.93307 3.44772 3.48535 4 3.48535C4.55228 3.48535 5 3.93307 5 4.48535V19.4854Z" fill="#FFF2D0"/>
<path opacity="0.3" d="M20 12.9854C20 12.1569 19.3284 11.4854 18.5 11.4854C17.6716 11.4854 17 12.1569 17 12.9854V15.9854C17 16.8138 17.6716 17.4854 18.5 17.4854C19.3284 17.4854 20 16.8138 20 15.9854V12.9854Z" fill="#FFF2D0"/>
</g>
<defs>
<clipPath id="clip0_3809_3340">
<rect width="24" height="24" fill="white" transform="translate(0 0.485352)"/>
</clipPath>
</defs>
</svg>
