<svg width="29" height="29" viewBox="0 0 29 29" fill="none" xmlns="http://www.w3.org/2000/svg">
<path opacity="0.3" d="M3.38379 12.508C4.43379 7.37462 8.75043 3.52462 14.0004 3.17462L11.2004 5.97461L13.8838 9.00795C12.1338 9.35795 10.6171 10.4079 9.80046 12.0413L6.18378 15.3079L3.38379 12.508ZM23.4504 14.258L20.0671 17.1746C19.2504 18.9246 17.7338 20.2079 15.7504 20.5579L18.4338 23.5913L15.6338 26.3913C20.8838 26.0413 25.2004 22.0746 26.2504 17.0579L23.4504 14.258Z" fill="#FFF2D0"/>
<path d="M17.0333 3.29132C22.1666 4.34132 26.0166 8.65799 26.3666 13.908L23.5666 11.108L20.5333 13.6747C20.1833 11.808 19.0166 10.2913 17.2666 9.47466L14.2333 5.97466L17.0333 3.29132ZM15.2833 23.4747L12.2499 19.9747C10.6166 19.158 9.44993 17.6413 9.09993 15.7747L6.06659 18.458L3.2666 15.658C3.6166 20.908 7.58327 25.2246 12.5999 26.2746L15.2833 23.4747Z" fill="#FFF2D0"/>
</svg>
