<svg width="15" height="15" viewBox="0 0 15 15" fill="none" xmlns="http://www.w3.org/2000/svg">
<path d="M10.8504 4.04057C10.8504 5.6514 9.54459 6.95724 7.93376 6.95724C6.32293 6.95724 5.01709 5.6514 5.01709 4.04057C5.01709 2.42974 6.32293 1.1239 7.93376 1.1239C9.54459 1.1239 10.8504 2.42974 10.8504 4.04057Z" fill="#422438"/>
<path opacity="0.25" fill-rule="evenodd" clip-rule="evenodd" d="M11.9108 8.77995C11.5512 8.36305 10.9336 8.38453 10.4506 8.64886C9.70332 9.05791 8.84562 9.29046 7.93359 9.29046C7.02157 9.29046 6.16387 9.05791 5.41654 8.64886C4.93361 8.38453 4.316 8.36305 3.95643 8.77995C3.16322 9.69961 2.68359 10.8974 2.68359 12.2071V12.7905C2.68359 13.4348 3.20593 13.9571 3.85026 13.9571H12.0169C12.6613 13.9571 13.1836 13.4348 13.1836 12.7905V12.2071C13.1836 10.8974 12.704 9.69961 11.9108 8.77995Z" fill="#422438"/>
</svg>
