<svg width="51" height="357" viewBox="0 0 51 357" fill="none" xmlns="http://www.w3.org/2000/svg">
<g clip-path="url(#clip0_3593_6513)">
<rect opacity="0.5" x="29" y="37" width="278" height="6" rx="3" transform="rotate(90 29 37)" fill="#FEA87E"/>
<rect x="29" y="30" width="128" height="6" rx="3" transform="rotate(90 29 30)" fill="#F7625A"/>
<circle cx="26" cy="18" r="15" transform="rotate(90 26 18)" fill="#6A2837"/>
<path d="M24.2549 14.416V12.704H27.8709V24H25.9509V14.416H24.2549Z" fill="#FFF6EC"/>
<circle cx="26" cy="162" r="15" transform="rotate(90 26 162)" fill="#A23842"/>
<circle r="15" transform="matrix(0 -1 -1 0 26 312)" fill="#FFBCB9"/>
<path d="M21.6009 166.576C23.3289 165.392 24.7103 164.235 25.7449 163.104C26.7903 161.963 27.3129 160.907 27.3129 159.936C27.3129 159.36 27.1689 158.901 26.8809 158.56C26.6036 158.219 26.1503 158.048 25.5209 158.048C24.8703 158.048 24.3796 158.261 24.0489 158.688C23.7183 159.104 23.5316 159.701 23.4889 160.48H21.7129C21.7876 159.189 22.1823 158.203 22.8969 157.52C23.6223 156.837 24.5449 156.496 25.6649 156.496C26.7636 156.496 27.6223 156.789 28.2409 157.376C28.8703 157.952 29.1849 158.752 29.1849 159.776C29.1849 160.597 28.9289 161.429 28.4169 162.272C27.9156 163.115 27.2756 163.893 26.4969 164.608C25.7183 165.312 24.9129 165.92 24.0809 166.432H29.4409V167.92H21.6009V166.576Z" fill="white"/>
<path d="M26.55 306.352C27.2967 306.352 27.9367 306.485 28.47 306.752C29.0033 307.008 29.4033 307.365 29.67 307.824C29.9473 308.283 30.086 308.795 30.086 309.36C30.086 310.075 29.8833 310.672 29.478 311.152C29.0833 311.621 28.5233 311.904 27.798 312V312.08C28.5767 312.304 29.1847 312.64 29.622 313.088C30.07 313.525 30.294 314.133 30.294 314.912C30.294 315.861 29.9793 316.635 29.35 317.232C28.7207 317.819 27.8193 318.112 26.646 318.112C25.4407 318.112 24.47 317.808 23.734 317.2C22.998 316.581 22.5767 315.669 22.47 314.464H24.278C24.342 315.104 24.5713 315.616 24.966 316C25.3607 316.373 25.894 316.56 26.566 316.56C27.1953 316.56 27.6753 316.395 28.006 316.064C28.3473 315.733 28.518 315.307 28.518 314.784C28.518 314.155 28.2727 313.675 27.782 313.344C27.302 313.013 26.6033 312.848 25.686 312.848H25.254V311.344H25.686C27.4247 311.365 28.294 310.773 28.294 309.568C28.294 309.045 28.134 308.635 27.814 308.336C27.494 308.037 27.0567 307.888 26.502 307.888C25.9473 307.888 25.4833 308.059 25.11 308.4C24.7367 308.731 24.5127 309.216 24.438 309.856H22.646C22.7207 308.747 23.094 307.888 23.766 307.28C24.438 306.661 25.366 306.352 26.55 306.352Z" fill="#FFF6EC"/>
</g>
<defs>
<clipPath id="clip0_3593_6513">
<rect width="357" height="51" fill="white" transform="translate(51) rotate(90)"/>
</clipPath>
</defs>
</svg>
