<svg width="25" height="24" viewBox="0 0 25 24" fill="none" xmlns="http://www.w3.org/2000/svg">
<path fill-rule="evenodd" clip-rule="evenodd" d="M21.0869 12C21.0869 16.9706 17.0575 21 12.0869 21C7.11635 21 3.08691 16.9706 3.08691 12C3.08691 7.02944 7.11635 3 12.0869 3C17.0575 3 21.0869 7.02944 21.0869 12ZM14.2528 7.3547C14.5967 7.12768 15.0521 7.39063 15.0274 7.80191L14.7004 13.2503C14.691 13.4074 14.6081 13.5509 14.4768 13.6376L9.92185 16.645C9.57801 16.872 9.12256 16.6091 9.14725 16.1978L9.47428 10.7494C9.48371 10.5923 9.56655 10.4488 9.69789 10.3621L14.2528 7.3547Z" fill="#A23842"/>
</svg>
