<svg width="25" height="24" viewBox="0 0 25 24" fill="none" xmlns="http://www.w3.org/2000/svg">
<path opacity="0.3" fill-rule="evenodd" clip-rule="evenodd" d="M11.2617 3C11.2617 2.44772 11.7094 2 12.2617 2C12.814 2 13.2617 2.44772 13.2617 3V5C13.2617 5.55228 12.814 6 12.2617 6C11.7094 6 11.2617 5.55228 11.2617 5V3ZM3.26172 11C2.70943 11 2.26172 11.4477 2.26172 12C2.26172 12.5523 2.70943 13 3.26172 13H5.26172C5.814 13 6.26172 12.5523 6.26172 12C6.26172 11.4477 5.814 11 5.26172 11H3.26172ZM19.2617 11C18.7094 11 18.2617 11.4477 18.2617 12C18.2617 12.5523 18.7094 13 19.2617 13H21.2617C21.814 13 22.2617 12.5523 22.2617 12C22.2617 11.4477 21.814 11 21.2617 11H19.2617ZM12.2617 18C11.7094 18 11.2617 18.4477 11.2617 19V21C11.2617 21.5523 11.7094 22 12.2617 22C12.814 22 13.2617 21.5523 13.2617 21V19C13.2617 18.4477 12.814 18 12.2617 18Z" fill="#A23842"/>
<path opacity="0.3" fill-rule="evenodd" clip-rule="evenodd" d="M12.2617 14C13.3663 14 14.2617 13.1046 14.2617 12C14.2617 10.8954 13.3663 10 12.2617 10C11.1571 10 10.2617 10.8954 10.2617 12C10.2617 13.1046 11.1571 14 12.2617 14Z" fill="#A23842"/>
<path fill-rule="evenodd" clip-rule="evenodd" d="M5.26172 12C5.26172 15.866 8.39573 19 12.2617 19C16.1277 19 19.2617 15.866 19.2617 12C19.2617 8.13401 16.1277 5 12.2617 5C8.39573 5 5.26172 8.13401 5.26172 12ZM17.2617 12C17.2617 14.7614 15.0231 17 12.2617 17C9.50029 17 7.26172 14.7614 7.26172 12C7.26172 9.23858 9.50029 7 12.2617 7C15.0231 7 17.2617 9.23858 17.2617 12Z" fill="#A23842"/>
</svg>
