<svg width="25" height="25" viewBox="0 0 25 25" fill="none" xmlns="http://www.w3.org/2000/svg">
<path fill-rule="evenodd" clip-rule="evenodd" d="M15.1738 20.0229C15.1738 20.765 16.1362 21.0564 16.5479 20.4389L22.3965 11.666C22.7288 11.1676 22.3715 10.5 21.7724 10.5H17.1738V4.97708C17.1738 4.23503 16.2114 3.94363 15.7998 4.56106L9.95118 13.334C9.6189 13.8324 9.97619 14.5 10.5752 14.5H15.1738V20.0229Z" fill="#A23842"/>
<path opacity="0.3" fill-rule="evenodd" clip-rule="evenodd" d="M3.17383 7C3.17383 6.17157 3.8454 5.5 4.67383 5.5H9.67383C10.5023 5.5 11.1738 6.17157 11.1738 7C11.1738 7.82843 10.5023 8.5 9.67383 8.5H4.67383C3.8454 8.5 3.17383 7.82843 3.17383 7ZM3.17383 19C3.17383 18.1716 3.8454 17.5 4.67383 17.5H9.67383C10.5023 17.5 11.1738 18.1716 11.1738 19C11.1738 19.8284 10.5023 20.5 9.67383 20.5H4.67383C3.8454 20.5 3.17383 19.8284 3.17383 19ZM2.67383 11.5C1.8454 11.5 1.17383 12.1716 1.17383 13C1.17383 13.8284 1.8454 14.5 2.67383 14.5H6.67383C7.50226 14.5 8.17383 13.8284 8.17383 13C8.17383 12.1716 7.50225 11.5 6.67383 11.5H2.67383Z" fill="#A23842"/>
</svg>
