<svg width="29" height="29" viewBox="0 0 29 29" fill="none" xmlns="http://www.w3.org/2000/svg">
<path opacity="0.25" d="M16.3009 18.4066C16.4926 17.0067 17.5847 15.9146 18.9846 15.7229C19.7875 15.6129 20.6596 15.5221 21.3501 15.5221C22.0406 15.5221 22.9127 15.6129 23.7156 15.7229C25.1155 15.9146 26.2076 17.0067 26.3993 18.4066C26.5093 19.2095 26.6001 20.0816 26.6001 20.7721C26.6001 21.4626 26.5093 22.3347 26.3993 23.1376C26.2076 24.5375 25.1155 25.6296 23.7156 25.8213C22.9127 25.9313 22.0406 26.0221 21.3501 26.0221C20.6596 26.0221 19.7875 25.9313 18.9846 25.8213C17.5847 25.6296 16.4926 24.5375 16.3009 23.1376C16.1909 22.3347 16.1001 21.4626 16.1001 20.7721C16.1001 20.0816 16.1909 19.2095 16.3009 18.4066Z" fill="#FFF2D0"/>
<path opacity="0.25" d="M3.46786 18.4066C3.65958 17.0067 4.75171 15.9146 6.1516 15.7229C6.95451 15.6129 7.82661 15.5221 8.51709 15.5221C9.20757 15.5221 10.0797 15.6129 10.8826 15.7229C12.2825 15.9146 13.3746 17.0067 13.5663 18.4066C13.6763 19.2095 13.7671 20.0816 13.7671 20.7721C13.7671 21.4626 13.6763 22.3347 13.5663 23.1376C13.3746 24.5375 12.2825 25.6296 10.8826 25.8213C10.0797 25.9313 9.20757 26.0221 8.51709 26.0221C7.82661 26.0221 6.95451 25.9313 6.1516 25.8213C4.75171 25.6296 3.65958 24.5375 3.46786 23.1376C3.3579 22.3347 3.26709 21.4626 3.26709 20.7721C3.26709 20.0816 3.3579 19.2095 3.46786 18.4066Z" fill="#FFF2D0"/>
<path opacity="0.25" d="M16.3009 5.57335C16.4926 4.17347 17.5847 3.08134 18.9846 2.88962C19.7875 2.77965 20.6596 2.68884 21.3501 2.68884C22.0406 2.68884 22.9127 2.77965 23.7156 2.88962C25.1155 3.08134 26.2076 4.17347 26.3993 5.57335C26.5093 6.37626 26.6001 7.24836 26.6001 7.93884C26.6001 8.62932 26.5093 9.50142 26.3993 10.3043C26.2076 11.7042 25.1155 12.7963 23.7156 12.9881C22.9127 13.098 22.0406 13.1888 21.3501 13.1888C20.6596 13.1888 19.7875 13.098 18.9846 12.9881C17.5847 12.7963 16.4926 11.7042 16.3009 10.3043C16.1909 9.50142 16.1001 8.62932 16.1001 7.93884C16.1001 7.24836 16.1909 6.37626 16.3009 5.57335Z" fill="#FFF2D0"/>
<path d="M3.46786 5.57335C3.65958 4.17347 4.75171 3.08134 6.1516 2.88962C6.95451 2.77965 7.82661 2.68884 8.51709 2.68884C9.20757 2.68884 10.0797 2.77965 10.8826 2.88962C12.2825 3.08134 13.3746 4.17347 13.5663 5.57335C13.6763 6.37626 13.7671 7.24836 13.7671 7.93884C13.7671 8.62932 13.6763 9.50142 13.5663 10.3043C13.3746 11.7042 12.2825 12.7963 10.8826 12.9881C10.0797 13.098 9.20757 13.1888 8.51709 13.1888C7.82661 13.1888 6.95451 13.098 6.1516 12.9881C4.75171 12.7963 3.65958 11.7042 3.46786 10.3043C3.3579 9.50142 3.26709 8.62932 3.26709 7.93884C3.26709 7.24836 3.3579 6.37626 3.46786 5.57335Z" fill="#FFF2D0"/>
</svg>
