<svg width="29" height="29" viewBox="0 0 29 29" fill="none" xmlns="http://www.w3.org/2000/svg">
<path opacity="0.25" d="M16.301 18.4071C16.4927 17.0072 17.5848 15.9151 18.9847 15.7234C19.7876 15.6134 20.6597 15.5226 21.3502 15.5226C22.0407 15.5226 22.9128 15.6134 23.7157 15.7234C25.1156 15.9151 26.2077 17.0072 26.3994 18.4071C26.5094 19.21 26.6002 20.0821 26.6002 20.7726C26.6002 21.4631 26.5094 22.3352 26.3994 23.1381C26.2077 24.538 25.1156 25.6301 23.7157 25.8218C22.9128 25.9318 22.0407 26.0226 21.3502 26.0226C20.6597 26.0226 19.7876 25.9318 18.9847 25.8218C17.5848 25.6301 16.4927 24.538 16.301 23.1381C16.191 22.3352 16.1002 21.4631 16.1002 20.7726C16.1002 20.0821 16.191 19.21 16.301 18.4071Z" fill="#371E2F"/>
<path opacity="0.25" d="M3.46774 18.4071C3.65946 17.0072 4.75159 15.9151 6.15148 15.7234C6.95439 15.6134 7.82649 15.5226 8.51697 15.5226C9.20745 15.5226 10.0795 15.6134 10.8825 15.7234C12.2823 15.9151 13.3745 17.0072 13.5662 18.4071C13.6762 19.21 13.767 20.0821 13.767 20.7726C13.767 21.4631 13.6762 22.3352 13.5662 23.1381C13.3745 24.538 12.2823 25.6301 10.8825 25.8218C10.0795 25.9318 9.20745 26.0226 8.51697 26.0226C7.82649 26.0226 6.95439 25.9318 6.15148 25.8218C4.75159 25.6301 3.65946 24.538 3.46774 23.1381C3.35778 22.3352 3.26697 21.4631 3.26697 20.7726C3.26697 20.0821 3.35778 19.21 3.46774 18.4071Z" fill="#371E2F"/>
<path opacity="0.25" d="M16.301 5.57384C16.4927 4.17395 17.5848 3.08182 18.9847 2.8901C19.7876 2.78014 20.6597 2.68933 21.3502 2.68933C22.0407 2.68933 22.9128 2.78014 23.7157 2.8901C25.1156 3.08182 26.2077 4.17395 26.3994 5.57384C26.5094 6.37675 26.6002 7.24885 26.6002 7.93933C26.6002 8.62981 26.5094 9.50191 26.3994 10.3048C26.2077 11.7047 25.1156 12.7968 23.7157 12.9886C22.9128 13.0985 22.0407 13.1893 21.3502 13.1893C20.6597 13.1893 19.7876 13.0985 18.9847 12.9886C17.5848 12.7968 16.4927 11.7047 16.301 10.3048C16.191 9.50191 16.1002 8.62981 16.1002 7.93933C16.1002 7.24885 16.191 6.37675 16.301 5.57384Z" fill="#371E2F"/>
<path d="M3.46774 5.57384C3.65946 4.17395 4.75159 3.08182 6.15148 2.8901C6.95439 2.78014 7.82649 2.68933 8.51697 2.68933C9.20745 2.68933 10.0795 2.78014 10.8825 2.8901C12.2823 3.08182 13.3745 4.17395 13.5662 5.57384C13.6762 6.37675 13.767 7.24885 13.767 7.93933C13.767 8.62981 13.6762 9.50191 13.5662 10.3048C13.3745 11.7047 12.2823 12.7968 10.8825 12.9886C10.0795 13.0985 9.20745 13.1893 8.51697 13.1893C7.82649 13.1893 6.95439 13.0985 6.15148 12.9886C4.75159 12.7968 3.65946 11.7047 3.46774 10.3048C3.35778 9.50191 3.26697 8.62981 3.26697 7.93933C3.26697 7.24885 3.35778 6.37675 3.46774 5.57384Z" fill="#371E2F"/>
</svg>
