<svg width="31" height="31" viewBox="0 0 31 31" fill="none" xmlns="http://www.w3.org/2000/svg">
<g clip-path="url(#clip0_1343_2647)">
<path d="M8.13721 0.897949C7.10596 0.897949 6.26221 1.7417 6.26221 2.77295V29.0229C6.26221 30.0542 7.10596 30.8979 8.13721 30.8979H26.8872C27.9185 30.8979 28.7622 30.0542 28.7622 29.0229V8.39795L21.2622 0.897949H8.13721Z" fill="#E2E5E7"/>
<path d="M23.1372 8.39795H28.7622L21.2622 0.897949V6.52295C21.2622 7.5542 22.106 8.39795 23.1372 8.39795Z" fill="#B0B7BD"/>
<path d="M28.7622 14.0229L23.1372 8.39795H28.7622V14.0229Z" fill="#CAD1D8"/>
<path d="M25.0122 25.2729C25.0122 25.7886 24.5903 26.2104 24.0747 26.2104H3.44971C2.93408 26.2104 2.51221 25.7886 2.51221 25.2729V15.8979C2.51221 15.3823 2.93408 14.9604 3.44971 14.9604H24.0747C24.5903 14.9604 25.0122 15.3823 25.0122 15.8979V25.2729Z" fill="#50BEE8"/>
<path d="M6.06163 23.3981C5.81413 23.3981 5.54413 23.2622 5.54413 22.9331V18.6759C5.54413 18.4059 5.81413 18.2109 6.06163 18.2109H7.77819C11.2038 18.2109 11.1279 23.3981 7.84475 23.3981H6.06163ZM6.53413 19.125V22.4831H7.77819C9.80225 22.4831 9.89132 19.125 7.77819 19.125H6.53413Z" fill="white"/>
<path d="M13.9967 23.4731C12.6102 23.5331 11.1702 22.6106 11.1702 20.7741C11.1702 18.93 12.6092 18.0234 13.9967 18.0234C15.3083 18.09 16.6799 18.9975 16.6799 20.7741C16.6799 22.5516 15.3083 23.4731 13.9967 23.4731ZM13.9142 18.9984C13.0742 18.9984 12.1602 19.5909 12.1602 20.775C12.1602 21.9525 13.0752 22.5525 13.9142 22.5525C14.7767 22.5525 15.6983 21.9525 15.6983 20.775C15.6983 19.59 14.7767 18.9984 13.9142 18.9984Z" fill="white"/>
<path d="M17.5617 20.7668C17.5617 19.3202 18.4692 18.0762 20.1933 18.0762C20.8458 18.0762 21.3633 18.2712 21.9098 18.7437C22.1123 18.9302 22.1348 19.2602 21.9323 19.4702C21.7298 19.6493 21.4223 19.6277 21.2423 19.4477C20.9358 19.1252 20.6208 19.0362 20.1933 19.0362C19.0392 19.0362 18.4851 19.8537 18.4851 20.7677C18.4851 21.6977 19.0317 22.5518 20.1933 22.5518C20.6208 22.5518 21.0183 22.3784 21.3633 22.0718C21.5948 21.8918 21.9173 21.9809 22.0523 22.1618C22.1723 22.3268 22.2314 22.6043 21.9698 22.8659C21.4448 23.3543 20.8158 23.4518 20.1923 23.4518C18.3792 23.4518 17.5617 22.2134 17.5617 20.7668Z" fill="white"/>
<path d="M24.0747 26.2104H6.26221V27.1479H24.0747C24.5903 27.1479 25.0122 26.7261 25.0122 26.2104V25.2729C25.0122 25.7886 24.5903 26.2104 24.0747 26.2104Z" fill="#CAD1D8"/>
</g>
<defs>
<clipPath id="clip0_1343_2647">
<rect width="30" height="30" fill="white" transform="translate(0.637207 0.897949)"/>
</clipPath>
</defs>
</svg>
