<svg width="14" height="14" viewBox="0 0 14 14" fill="none" xmlns="http://www.w3.org/2000/svg">
<path d="M12.8857 2.89708L10.5175 0.516789C10.361 0.361088 10.1493 0.273682 9.9285 0.273682C9.70775 0.273682 9.49597 0.361088 9.33948 0.516789L0.943919 8.90025L0.177385 12.2084C0.150943 12.3294 0.151849 12.4547 0.180039 12.5752C0.208228 12.6958 0.262989 12.8085 0.34032 12.9051C0.417651 13.0018 0.515599 13.08 0.627008 13.1339C0.738418 13.1879 0.860475 13.2163 0.984263 13.217C1.04194 13.2229 1.10006 13.2229 1.15774 13.217L4.50225 12.4505L12.8857 4.07512C13.0414 3.91863 13.1288 3.70685 13.1288 3.4861C13.1288 3.26534 13.0414 3.05357 12.8857 2.89708ZM4.09881 11.7243L0.964091 12.3819L1.67818 9.30772L7.95972 3.05038L10.3804 5.47102L4.09881 11.7243ZM10.921 4.88603L8.50033 2.4654L9.90429 1.0695L12.2846 3.49013L10.921 4.88603Z" fill="#422438"/>
</svg>
