<svg width="31" height="33" viewBox="0 0 31 33" fill="none" xmlns="http://www.w3.org/2000/svg">
<g clip-path="url(#clip0_3795_6776)">
<path d="M7.60953 -0.000244141C6.56329 -0.000244141 5.70728 0.904284 5.70728 2.00982V30.1507C5.70728 31.2562 6.56329 32.1608 7.60953 32.1608H26.632C27.6783 32.1608 28.5343 31.2562 28.5343 30.1507V8.04001L20.9253 -0.000244141H7.60953Z" fill="#E2E5E7"/>
<path d="M22.8274 8.04001H28.5342L20.9252 -0.000244141V6.02994C20.9252 7.13548 21.7812 8.04001 22.8274 8.04001Z" fill="#B0B7BD"/>
<path d="M28.534 14.0702L22.8273 8.04004H28.534V14.0702Z" fill="#CAD1D8"/>
<path d="M26.827 26.1306C26.827 26.6834 26.399 27.1356 25.8759 27.1356H4.95113C4.42801 27.1356 4 26.6834 4 26.1306V16.0803C4 15.5275 4.42801 15.0753 4.95113 15.0753H25.8759C26.399 15.0753 26.827 15.5275 26.827 16.0803V26.1306Z" fill="#0C5500"/>
<path d="M6.88453 22.8867L8.16578 21.0156L7.08766 19.3516C6.98609 19.1901 6.90927 19.0521 6.85719 18.9375C6.80771 18.8203 6.78297 18.7083 6.78297 18.6016C6.78297 18.4922 6.83115 18.3945 6.9275 18.3086C7.02646 18.2201 7.14625 18.1758 7.28687 18.1758C7.44833 18.1758 7.57333 18.224 7.66187 18.3203C7.75302 18.4141 7.87802 18.5898 8.03687 18.8477L8.89625 20.2383L9.81422 18.8477C9.88974 18.7305 9.95354 18.6302 10.0056 18.5469C10.0603 18.4635 10.1124 18.3945 10.1619 18.3398C10.2114 18.2852 10.266 18.2448 10.3259 18.2188C10.3884 18.1901 10.4601 18.1758 10.5408 18.1758C10.6866 18.1758 10.8051 18.2201 10.8962 18.3086C10.99 18.3945 11.0369 18.4974 11.0369 18.6172C11.0369 18.7917 10.9366 19.0286 10.7361 19.3281L9.60719 21.0156L10.822 22.8867C10.9314 23.0508 11.0108 23.1875 11.0603 23.2969C11.1098 23.4036 11.1345 23.5052 11.1345 23.6016C11.1345 23.6927 11.1124 23.776 11.0681 23.8516C11.0239 23.9271 10.9614 23.987 10.8806 24.0312C10.7999 24.0755 10.7087 24.0977 10.6072 24.0977C10.4978 24.0977 10.4054 24.0742 10.3298 24.0273C10.2543 23.9831 10.1931 23.9271 10.1462 23.8594C10.0994 23.7917 10.0121 23.6602 9.88453 23.4648L8.87672 21.8789L7.80641 23.5117C7.72307 23.6419 7.66318 23.7331 7.62672 23.7852C7.59286 23.8372 7.5512 23.888 7.50172 23.9375C7.45224 23.987 7.39365 24.026 7.32594 24.0547C7.25823 24.0833 7.1788 24.0977 7.08766 24.0977C6.94703 24.0977 6.82984 24.0547 6.73609 23.9688C6.64495 23.8828 6.59937 23.7578 6.59937 23.5938C6.59937 23.401 6.69443 23.1654 6.88453 22.8867ZM12.9081 18.8789V23.0469H15.2597C15.4472 23.0469 15.5904 23.0924 15.6894 23.1836C15.7909 23.2747 15.8417 23.3893 15.8417 23.5273C15.8417 23.668 15.7922 23.7826 15.6933 23.8711C15.5943 23.957 15.4498 24 15.2597 24H12.4589C12.2063 24 12.024 23.944 11.912 23.832C11.8027 23.7201 11.748 23.5391 11.748 23.2891V18.8789C11.748 18.6445 11.8001 18.4688 11.9042 18.3516C12.011 18.2344 12.1503 18.1758 12.3222 18.1758C12.4967 18.1758 12.6373 18.2344 12.7441 18.3516C12.8534 18.4661 12.9081 18.6419 12.9081 18.8789ZM20.4942 22.2812C20.4942 22.6276 20.4044 22.9388 20.2247 23.2148C20.0476 23.4909 19.7872 23.707 19.4434 23.8633C19.0997 24.0195 18.6921 24.0977 18.2208 24.0977C17.6557 24.0977 17.1895 23.9909 16.8223 23.7773C16.5619 23.6237 16.3497 23.4193 16.1856 23.1641C16.0242 22.9062 15.9434 22.6562 15.9434 22.4141C15.9434 22.2734 15.9916 22.1536 16.088 22.0547C16.1869 21.9531 16.3119 21.9023 16.463 21.9023C16.5854 21.9023 16.6882 21.9414 16.7716 22.0195C16.8575 22.0977 16.9304 22.2135 16.9903 22.3672C17.0632 22.5495 17.1414 22.7018 17.2247 22.8242C17.3106 22.9466 17.4304 23.0482 17.5841 23.1289C17.7377 23.207 17.9395 23.2461 18.1895 23.2461C18.5333 23.2461 18.8119 23.1667 19.0255 23.0078C19.2416 22.8464 19.3497 22.6458 19.3497 22.4062C19.3497 22.2161 19.2911 22.0625 19.1739 21.9453C19.0593 21.8255 18.9096 21.7344 18.7247 21.6719C18.5424 21.6094 18.2976 21.543 17.9903 21.4727C17.5789 21.3763 17.2338 21.2643 16.9552 21.1367C16.6791 21.0065 16.4591 20.8307 16.295 20.6094C16.1335 20.3854 16.0528 20.1081 16.0528 19.7773C16.0528 19.4622 16.1388 19.1823 16.3106 18.9375C16.4825 18.6927 16.7312 18.5052 17.0567 18.375C17.3822 18.2422 17.7651 18.1758 18.2052 18.1758C18.5567 18.1758 18.8601 18.2201 19.1153 18.3086C19.3731 18.3945 19.5867 18.5104 19.7559 18.6562C19.9252 18.7995 20.0489 18.9505 20.127 19.1094C20.2052 19.2682 20.2442 19.4232 20.2442 19.5742C20.2442 19.7122 20.1947 19.8372 20.0958 19.9492C19.9994 20.0586 19.8783 20.1133 19.7325 20.1133C19.5997 20.1133 19.4981 20.0807 19.4278 20.0156C19.3601 19.9479 19.2859 19.8385 19.2052 19.6875C19.101 19.4714 18.976 19.3034 18.8302 19.1836C18.6843 19.0612 18.4499 19 18.127 19C17.8276 19 17.5854 19.0664 17.4005 19.1992C17.2182 19.3294 17.127 19.487 17.127 19.6719C17.127 19.7865 17.1583 19.8854 17.2208 19.9688C17.2833 20.0521 17.3692 20.1237 17.4786 20.1836C17.588 20.2435 17.6986 20.2904 17.8106 20.3242C17.9226 20.3581 18.1075 20.4076 18.3653 20.4727C18.6882 20.5482 18.9799 20.6315 19.2403 20.7227C19.5033 20.8138 19.726 20.9245 19.9083 21.0547C20.0932 21.1849 20.2364 21.3503 20.338 21.5508C20.4421 21.7487 20.4942 21.9922 20.4942 22.2812ZM21.1077 22.8867L22.3889 21.0156L21.3108 19.3516C21.2092 19.1901 21.1324 19.0521 21.0803 18.9375C21.0308 18.8203 21.0061 18.7083 21.0061 18.6016C21.0061 18.4922 21.0543 18.3945 21.1506 18.3086C21.2496 18.2201 21.3694 18.1758 21.51 18.1758C21.6715 18.1758 21.7965 18.224 21.885 18.3203C21.9761 18.4141 22.1011 18.5898 22.26 18.8477L23.1194 20.2383L24.0373 18.8477C24.1129 18.7305 24.1767 18.6302 24.2288 18.5469C24.2834 18.4635 24.3355 18.3945 24.385 18.3398C24.4345 18.2852 24.4892 18.2448 24.5491 18.2188C24.6116 18.1901 24.6832 18.1758 24.7639 18.1758C24.9097 18.1758 25.0282 18.2201 25.1194 18.3086C25.2131 18.3945 25.26 18.4974 25.26 18.6172C25.26 18.7917 25.1597 19.0286 24.9592 19.3281L23.8303 21.0156L25.0452 22.8867C25.1545 23.0508 25.234 23.1875 25.2834 23.2969C25.3329 23.4036 25.3577 23.5052 25.3577 23.6016C25.3577 23.6927 25.3355 23.776 25.2913 23.8516C25.247 23.9271 25.1845 23.987 25.1038 24.0312C25.023 24.0755 24.9319 24.0977 24.8303 24.0977C24.7209 24.0977 24.6285 24.0742 24.553 24.0273C24.4774 23.9831 24.4163 23.9271 24.3694 23.8594C24.3225 23.7917 24.2353 23.6602 24.1077 23.4648L23.0998 21.8789L22.0295 23.5117C21.9462 23.6419 21.8863 23.7331 21.8498 23.7852C21.816 23.8372 21.7743 23.888 21.7248 23.9375C21.6754 23.987 21.6168 24.026 21.5491 24.0547C21.4814 24.0833 21.4019 24.0977 21.3108 24.0977C21.1702 24.0977 21.053 24.0547 20.9592 23.9688C20.8681 23.8828 20.8225 23.7578 20.8225 23.5938C20.8225 23.401 20.9176 23.1654 21.1077 22.8867Z" fill="white"/>
</g>
<defs>
<clipPath id="clip0_3795_6776">
<rect width="30.436" height="32.161" fill="white"/>
</clipPath>
</defs>
</svg>
