<svg width="31" height="33" viewBox="0 0 31 33" fill="none" xmlns="http://www.w3.org/2000/svg">
<g clip-path="url(#clip0_3395_6823)">
<path d="M7.60928 -0.000244141C6.56304 -0.000244141 5.70703 0.904284 5.70703 2.00982V30.1507C5.70703 31.2562 6.56304 32.1608 7.60928 32.1608H26.6318C27.678 32.1608 28.534 31.2562 28.534 30.1507V8.04001L20.925 -0.000244141H7.60928Z" fill="#E2E5E7"/>
<path d="M22.8271 8.04001H28.5338L20.9248 -0.000244141V6.02994C20.9248 7.13548 21.7808 8.04001 22.8271 8.04001Z" fill="#B0B7BD"/>
<path d="M28.5339 14.0702L22.8271 8.04004H28.5339V14.0702Z" fill="#CAD1D8"/>
<path d="M24.7293 26.1306C24.7293 26.6834 24.3013 27.1356 23.7782 27.1356H2.85347C2.33035 27.1356 1.90234 26.6834 1.90234 26.1306V16.0803C1.90234 15.5275 2.33035 15.0753 2.85347 15.0753H23.7782C24.3013 15.0753 24.7293 15.5275 24.7293 16.0803V26.1306Z" fill="#F15642"/>
<path d="M5.83365 19.7659C6.00866 18.2061 8.2362 17.9257 9.28529 18.7779C9.8027 19.2191 9.2558 19.9186 8.79831 19.5649C8.2362 19.188 6.95788 19.0111 6.79809 19.8453C6.59265 21.1639 9.90161 20.4091 9.8474 22.5468C9.79414 24.588 6.99593 24.6352 5.94589 23.7197C5.69479 23.5026 5.7024 23.1498 5.84031 22.9317C6.03719 22.7237 6.25785 22.6513 6.51656 22.8764C7.1405 23.3257 8.74505 23.6634 8.85918 22.5217C8.76122 21.3337 5.59777 22.0483 5.83365 19.7659Z" fill="white"/>
<path d="M15.7822 23.2053L15.9039 23.3571C16.4052 23.8395 15.7518 24.6274 15.2419 24.1209L14.9842 23.9048C14.5885 24.1932 14.1253 24.3309 13.509 24.3309C12.1708 24.3309 10.6414 23.3571 10.6414 21.3802C10.6414 19.4033 12.1622 18.3992 13.509 18.3992C14.9224 18.3992 16.3072 19.4033 16.3072 21.3802C16.3072 22.144 16.1236 22.7078 15.7822 23.2053ZM15.3247 21.3802C15.3247 20.1028 14.3745 19.4525 13.508 19.4525C12.5731 19.4525 11.6524 20.1018 11.6524 21.3802C11.6524 22.354 12.4352 23.2777 13.508 23.2777C13.781 23.2777 14.0473 23.2053 14.3137 23.1329L13.4472 22.2887C13.0439 21.7741 13.6831 21.0425 14.1919 21.5168L15.0517 22.4244C15.241 22.144 15.3247 21.7982 15.3247 21.3802Z" fill="white"/>
<path d="M17.4277 19.0422C17.4277 18.7768 17.6408 18.5517 17.9071 18.5517C18.1506 18.5517 18.356 18.7778 18.356 19.0422V23.0683H20.4247C21.1695 23.0683 21.1856 24.1206 20.4247 24.1206H17.9081C17.6417 24.1206 17.4287 23.9206 17.4287 23.6311V19.0422H17.4277V19.0422Z" fill="white"/>
<path d="M23.7784 27.1359H5.70703V28.1409H23.7784C24.3015 28.1409 24.7295 27.6887 24.7295 27.1359V26.1309C24.7295 26.6836 24.3015 27.1359 23.7784 27.1359Z" fill="#CAD1D8"/>
</g>
<defs>
<clipPath id="clip0_3395_6823">
<rect width="30.436" height="32.161" fill="white"/>
</clipPath>
</defs>
</svg>
