<svg width="18" height="22" viewBox="0 0 18 22" fill="none" xmlns="http://www.w3.org/2000/svg">
<path opacity="0.25" d="M0.276978 3.45302C0.276978 1.89007 1.544 0.623047 3.10695 0.623047H12.3113C13.0619 0.623047 13.7817 0.921204 14.3124 1.45193L16.4279 3.56746C16.9586 4.09819 17.2568 4.818 17.2568 5.56855V18.5462C17.2568 20.1091 15.9898 21.3762 14.4268 21.3762H3.10695C1.544 21.3762 0.276978 20.1091 0.276978 18.5462V3.45302Z" fill="#422438"/>
<path d="M11.5969 1.46431C11.5969 0.999692 11.9736 0.623047 12.4382 0.623047V0.623047C13.1075 0.623047 13.7495 0.888945 14.2228 1.36225L16.5177 3.65714C16.991 4.13044 17.2569 4.77238 17.2569 5.44173V5.44173C17.2569 5.90634 16.8802 6.28299 16.4156 6.28299H12.5402C12.0193 6.28299 11.5969 5.86065 11.5969 5.33967V1.46431Z" fill="#422438"/>
<path d="M8.40586 8.2415C8.2946 8.28753 8.19036 8.35577 8.09992 8.44622L5.26995 11.2762C4.90155 11.6446 4.90155 12.2419 5.26995 12.6102C5.63834 12.9786 6.23562 12.9786 6.60401 12.6102L7.82362 11.3906V15.7165C7.82362 16.2375 8.24596 16.6598 8.76695 16.6598C9.28793 16.6598 9.71027 16.2375 9.71027 15.7165V11.3906L10.9299 12.6102C11.2983 12.9786 11.8956 12.9786 12.2639 12.6102C12.6323 12.2419 12.6323 11.6446 12.2639 11.2762L9.43398 8.44622C9.15603 8.16827 8.74778 8.10003 8.40586 8.2415Z" fill="#422438"/>
</svg>
