<svg width="31" height="31" viewBox="0 0 31 31" fill="none" xmlns="http://www.w3.org/2000/svg">
<g clip-path="url(#clip0_1297_1818)">
<path d="M8.43365 0.0625C7.4024 0.0625 6.55865 0.90625 6.55865 1.9375V28.1875C6.55865 29.2188 7.4024 30.0625 8.43365 30.0625H27.1837C28.2149 30.0625 29.0587 29.2188 29.0587 28.1875V7.5625L21.5587 0.0625H8.43365Z" fill="#E2E5E7"/>
<path d="M23.4337 7.5625H29.0587L21.5587 0.0625V5.6875C21.5587 6.71875 22.4024 7.5625 23.4337 7.5625Z" fill="#B0B7BD"/>
<path d="M29.0587 13.1875L23.4337 7.5625H29.0587V13.1875Z" fill="#CAD1D8"/>
<path d="M25.3087 24.4375C25.3087 24.9531 24.8868 25.375 24.3712 25.375H3.74615C3.23053 25.375 2.80865 24.9531 2.80865 24.4375V15.0625C2.80865 14.5469 3.23053 14.125 3.74615 14.125H24.3712C24.8868 14.125 25.3087 14.5469 25.3087 15.0625V24.4375Z" fill="#576D7E"/>
<path d="M7.0238 19.9309C7.0238 18.4843 7.93037 17.2402 9.65537 17.2402C10.3069 17.2402 10.8244 17.4352 11.3719 17.9077C11.5744 18.0943 11.596 18.4243 11.3935 18.6343C11.191 18.8134 10.8835 18.7918 10.7044 18.6118C10.3969 18.2893 10.0819 18.2002 9.65537 18.2002C8.5013 18.2002 7.9463 19.0177 7.9463 19.9318C7.9463 20.8618 8.4938 21.7159 9.65537 21.7159C10.0819 21.7159 10.4794 21.5424 10.8244 21.2359C11.0569 21.0559 11.3794 21.1449 11.5135 21.3259C11.6335 21.4909 11.6935 21.7684 11.431 22.0299C10.906 22.5184 10.2769 22.6159 9.65443 22.6159C7.8413 22.6159 7.0238 21.3774 7.0238 19.9309Z" fill="white"/>
<path d="M12.4013 18.499C12.5738 17.0449 14.7694 16.7834 15.8044 17.5784C16.3144 17.9899 15.7744 18.6424 15.3244 18.3124C14.7694 17.9599 13.5104 17.7949 13.3529 18.574C13.1504 19.804 16.411 19.0999 16.3585 21.0931C16.306 22.9971 13.5479 23.0421 12.5129 22.1871C12.2644 21.9856 12.2729 21.6565 12.4079 21.4531C12.6029 21.259 12.8194 21.1915 13.0754 21.4006C13.6894 21.8206 15.2719 22.1356 15.3835 21.0696C15.2879 19.9615 12.1688 20.629 12.4013 18.499Z" fill="white"/>
<path d="M17.1336 18.499C17.3061 17.0449 19.5017 16.7834 20.5367 17.5784C21.0467 17.9899 20.5067 18.6424 20.0567 18.3124C19.5017 17.9599 18.2427 17.7949 18.0852 18.574C17.8827 19.804 21.1433 19.0999 21.0908 21.0931C21.0383 22.9971 18.2802 23.0421 17.2452 22.1871C16.9977 21.9856 17.0052 21.6565 17.1402 21.4531C17.3352 21.259 17.5517 21.1915 17.8077 21.4006C18.4217 21.8206 20.0042 22.1356 20.1167 21.0696C20.0192 19.9615 16.9011 20.629 17.1336 18.499Z" fill="white"/>
<path d="M24.3712 25.375H6.55865V26.3125H24.3712C24.8868 26.3125 25.3087 25.8906 25.3087 25.375V24.4375C25.3087 24.9531 24.8868 25.375 24.3712 25.375Z" fill="#CAD1D8"/>
</g>
<defs>
<clipPath id="clip0_1297_1818">
<rect width="30" height="30" fill="white" transform="translate(0.933655 0.0625)"/>
</clipPath>
</defs>
</svg>
