<svg width="31" height="31" viewBox="0 0 31 31" fill="none" xmlns="http://www.w3.org/2000/svg">
<g clip-path="url(#clip0_1297_1833)">
<path d="M8.43365 0.0625C7.4024 0.0625 6.55865 0.90625 6.55865 1.9375V28.1875C6.55865 29.2188 7.4024 30.0625 8.43365 30.0625H27.1837C28.2149 30.0625 29.0587 29.2188 29.0587 28.1875V7.5625L21.5587 0.0625H8.43365Z" fill="#E2E5E7"/>
<path d="M23.4337 7.5625H29.0587L21.5587 0.0625V5.6875C21.5587 6.71875 22.4024 7.5625 23.4337 7.5625Z" fill="#B0B7BD"/>
<path d="M29.0587 13.1875L23.4337 7.5625H29.0587V13.1875Z" fill="#CAD1D8"/>
<path d="M25.3087 24.4375C25.3087 24.9531 24.8868 25.375 24.3712 25.375H3.74615C3.23053 25.375 2.80865 24.9531 2.80865 24.4375V15.0625C2.80865 14.5469 3.23053 14.125 3.74615 14.125H24.3712C24.8868 14.125 25.3087 14.5469 25.3087 15.0625V24.4375Z" fill="#50BEE8"/>
<path d="M6.35808 22.5622C6.11058 22.5622 5.84058 22.4263 5.84058 22.0972V17.84C5.84058 17.57 6.11058 17.375 6.35808 17.375H8.07464C11.5003 17.375 11.4243 22.5622 8.1412 22.5622H6.35808ZM6.83058 18.2891V21.6472H8.07464C10.0987 21.6472 10.1878 18.2891 8.07464 18.2891H6.83058Z" fill="white"/>
<path d="M14.2931 22.6372C12.9066 22.6972 11.4666 21.7747 11.4666 19.9381C11.4666 18.0941 12.9056 17.1875 14.2931 17.1875C15.6047 17.2541 16.9763 18.1616 16.9763 19.9381C16.9763 21.7156 15.6047 22.6372 14.2931 22.6372ZM14.2106 18.1625C13.3706 18.1625 12.4566 18.755 12.4566 19.9391C12.4566 21.1166 13.3716 21.7166 14.2106 21.7166C15.0731 21.7166 15.9947 21.1166 15.9947 19.9391C15.9947 18.7541 15.0731 18.1625 14.2106 18.1625Z" fill="white"/>
<path d="M17.8582 19.9309C17.8582 18.4843 18.7657 17.2402 20.4897 17.2402C21.1422 17.2402 21.6597 17.4352 22.2063 17.9077C22.4088 18.0943 22.4313 18.4243 22.2288 18.6343C22.0263 18.8134 21.7188 18.7918 21.5388 18.6118C21.2322 18.2893 20.9172 18.2002 20.4897 18.2002C19.3357 18.2002 18.7816 19.0177 18.7816 19.9318C18.7816 20.8618 19.3282 21.7159 20.4897 21.7159C20.9172 21.7159 21.3147 21.5424 21.6597 21.2359C21.8913 21.0559 22.2138 21.1449 22.3488 21.3259C22.4688 21.4909 22.5278 21.7684 22.2663 22.0299C21.7413 22.5184 21.1122 22.6159 20.4888 22.6159C18.6757 22.6159 17.8582 21.3774 17.8582 19.9309Z" fill="white"/>
<path d="M24.3712 25.375H6.55865V26.3125H24.3712C24.8868 26.3125 25.3087 25.8906 25.3087 25.375V24.4375C25.3087 24.9531 24.8868 25.375 24.3712 25.375Z" fill="#CAD1D8"/>
</g>
<defs>
<clipPath id="clip0_1297_1833">
<rect width="30" height="30" fill="white" transform="translate(0.933655 0.0625)"/>
</clipPath>
</defs>
</svg>
