<svg width="45" height="44" viewBox="0 0 45 44" fill="none" xmlns="http://www.w3.org/2000/svg">
<path opacity="0.25" d="M6.24023 7.22667C6.24023 4.23327 8.66686 1.80664 11.6603 1.80664H29.2887C30.7261 1.80664 32.1047 2.37768 33.1212 3.39413L37.1729 7.44586C38.1894 8.46231 38.7604 9.84091 38.7604 11.2784V36.1335C38.7604 39.1269 36.3338 41.5535 33.3404 41.5535H11.6603C8.66686 41.5535 6.24023 39.1269 6.24023 36.1335V7.22667Z" fill="#422438"/>
<path d="M27.9199 3.41784C27.9199 2.528 28.6413 1.80664 29.5311 1.80664C30.8131 1.80664 32.0425 2.3159 32.949 3.22237L37.3442 7.61761C38.2507 8.52409 38.76 9.75354 38.76 11.0355C38.76 11.9253 38.0386 12.6467 37.1488 12.6467H29.7266C28.7288 12.6467 27.9199 11.8378 27.9199 10.84V3.41784Z" fill="#422438"/>
<path d="M21.8086 16.3973C21.5955 16.4855 21.3958 16.6162 21.2226 16.7894L15.8026 22.2094C15.097 22.915 15.097 24.0589 15.8026 24.7645C16.5082 25.47 17.6521 25.47 18.3576 24.7645L20.6935 22.4286V30.7137C20.6935 31.7115 21.5023 32.5203 22.5001 32.5203C23.4979 32.5203 24.3068 31.7115 24.3068 30.7137V22.4286L26.6427 24.7645C27.3482 25.47 28.4921 25.47 29.1977 24.7645C29.9032 24.0589 29.9032 22.915 29.1977 22.2094L23.7777 16.7894C23.2453 16.2571 22.4634 16.1264 21.8086 16.3973Z" fill="#422438"/>
</svg>
