<svg width="27" height="30" viewBox="0 0 27 30" fill="none" xmlns="http://www.w3.org/2000/svg">
<path d="M5.625 0C4.59375 0 3.75 0.84375 3.75 1.875V28.125C3.75 29.1563 4.59375 30 5.625 30H24.375C25.4063 30 26.25 29.1563 26.25 28.125V7.5L18.75 0H5.625Z" fill="#E2E5E7"/>
<path d="M20.625 7.5H26.25L18.75 0V5.625C18.75 6.65625 19.5937 7.5 20.625 7.5Z" fill="#B0B7BD"/>
<path d="M26.25 13.125L20.625 7.5H26.25V13.125Z" fill="#CAD1D8"/>
<path d="M22.5 24.375C22.5 24.8906 22.0781 25.3125 21.5625 25.3125H0.9375C0.421875 25.3125 0 24.8906 0 24.375V15C0 14.4844 0.421875 14.0625 0.9375 14.0625H21.5625C22.0781 14.0625 22.5 14.4844 22.5 15V24.375Z" fill="#1CB69A"/>
<path d="M4.07797 22.3906V17.8789C4.07797 17.6445 4.13135 17.4688 4.23812 17.3516C4.3449 17.2344 4.48292 17.1758 4.65219 17.1758C4.82667 17.1758 4.96729 17.2344 5.07406 17.3516C5.18344 17.4661 5.23812 17.6419 5.23812 17.8789V22.3906C5.23812 22.6276 5.18344 22.8047 5.07406 22.9219C4.96729 23.0391 4.82667 23.0977 4.65219 23.0977C4.48552 23.0977 4.3475 23.0391 4.23812 22.9219C4.13135 22.8021 4.07797 22.625 4.07797 22.3906ZM8.3125 22.1367L7.39453 18.4883V22.4414C7.39453 22.6602 7.34505 22.8242 7.24609 22.9336C7.14974 23.043 7.02083 23.0977 6.85937 23.0977C6.70312 23.0977 6.57552 23.0443 6.47656 22.9375C6.3776 22.8281 6.32812 22.6628 6.32812 22.4414V17.9102C6.32812 17.6602 6.39323 17.4922 6.52344 17.4062C6.65365 17.3177 6.82943 17.2734 7.05078 17.2734H7.41016C7.6263 17.2734 7.78255 17.293 7.87891 17.332C7.97786 17.3711 8.05078 17.4414 8.09766 17.543C8.14453 17.6445 8.19792 17.8099 8.25781 18.0391L9.08984 21.1758L9.92187 18.0391C9.98177 17.8099 10.0352 17.6445 10.082 17.543C10.1289 17.4414 10.2005 17.3711 10.2969 17.332C10.3958 17.293 10.5534 17.2734 10.7695 17.2734H11.1289C11.3503 17.2734 11.526 17.3177 11.6562 17.4062C11.7865 17.4922 11.8516 17.6602 11.8516 17.9102V22.4414C11.8516 22.6602 11.8021 22.8242 11.7031 22.9336C11.6068 23.043 11.4766 23.0977 11.3125 23.0977C11.1589 23.0977 11.0326 23.043 10.9336 22.9336C10.8346 22.8242 10.7852 22.6602 10.7852 22.4414V18.4883L9.86719 22.1367C9.80729 22.3737 9.75781 22.5482 9.71875 22.6602C9.68229 22.7695 9.61328 22.8698 9.51172 22.9609C9.41016 23.0521 9.26953 23.0977 9.08984 23.0977C8.95443 23.0977 8.83984 23.0677 8.74609 23.0078C8.65234 22.9505 8.57943 22.8763 8.52734 22.7852C8.47526 22.694 8.43359 22.5938 8.40234 22.4844C8.3737 22.3724 8.34375 22.2565 8.3125 22.1367ZM18.1134 20.6719V21.7695C18.1134 21.9154 18.0991 22.0326 18.0705 22.1211C18.0418 22.207 17.9884 22.2852 17.9103 22.3555C17.8348 22.4258 17.7371 22.4935 17.6173 22.5586C17.271 22.7461 16.9377 22.8828 16.6173 22.9688C16.297 23.0547 15.9481 23.0977 15.5705 23.0977C15.1304 23.0977 14.7293 23.0299 14.3673 22.8945C14.0054 22.7591 13.6968 22.5625 13.4416 22.3047C13.1864 22.0469 12.9897 21.7344 12.8517 21.3672C12.7163 21 12.6486 20.5898 12.6486 20.1367C12.6486 19.6914 12.715 19.2839 12.8478 18.9141C12.9806 18.5443 13.1759 18.2305 13.4338 17.9727C13.6916 17.7148 14.0054 17.5182 14.3752 17.3828C14.7449 17.2448 15.1642 17.1758 15.633 17.1758C16.0184 17.1758 16.3595 17.2279 16.6564 17.332C16.9533 17.4336 17.1942 17.5625 17.3791 17.7188C17.564 17.875 17.7033 18.0404 17.797 18.2148C17.8908 18.3893 17.9377 18.5443 17.9377 18.6797C17.9377 18.8255 17.883 18.9505 17.7736 19.0547C17.6668 19.1562 17.5379 19.207 17.3869 19.207C17.3035 19.207 17.2228 19.1875 17.1447 19.1484C17.0692 19.1094 17.0054 19.0547 16.9533 18.9844C16.8101 18.7604 16.689 18.5911 16.59 18.4766C16.491 18.362 16.3569 18.2656 16.1877 18.1875C16.021 18.1094 15.8074 18.0703 15.547 18.0703C15.2788 18.0703 15.0392 18.1172 14.8283 18.2109C14.6173 18.3021 14.4364 18.4362 14.2853 18.6133C14.1369 18.7878 14.0223 19.0026 13.9416 19.2578C13.8634 19.513 13.8244 19.7956 13.8244 20.1055C13.8244 20.7773 13.978 21.2943 14.2853 21.6562C14.5952 22.0182 15.0262 22.1992 15.5783 22.1992C15.8465 22.1992 16.0978 22.1641 16.3322 22.0938C16.5692 22.0234 16.8088 21.9232 17.0509 21.793V20.8633H16.1525C15.9364 20.8633 15.7723 20.8307 15.6603 20.7656C15.5509 20.7005 15.4963 20.5898 15.4963 20.4336C15.4963 20.306 15.5418 20.2005 15.633 20.1172C15.7267 20.0339 15.853 19.9922 16.0119 19.9922H17.3283C17.4897 19.9922 17.6265 20.0065 17.7384 20.0352C17.8504 20.0638 17.9403 20.1276 18.008 20.2266C18.0783 20.3255 18.1134 20.474 18.1134 20.6719Z" fill="white"/>
<path d="M21.5625 25.3125H3.75V26.25H21.5625C22.0781 26.25 22.5 25.8281 22.5 25.3125V24.375C22.5 24.8906 22.0781 25.3125 21.5625 25.3125Z" fill="#CAD1D8"/>
</svg>
