<svg width="31" height="31" viewBox="0 0 31 31" fill="none" xmlns="http://www.w3.org/2000/svg">
<g clip-path="url(#clip0_1297_1848)">
<path d="M8.43365 0.0625C7.4024 0.0625 6.55865 0.90625 6.55865 1.9375V28.1875C6.55865 29.2188 7.4024 30.0625 8.43365 30.0625H27.1837C28.2149 30.0625 29.0587 29.2188 29.0587 28.1875V7.5625L21.5587 0.0625H8.43365Z" fill="#E2E5E7"/>
<path d="M23.4337 7.5625H29.0587L21.5587 0.0625V5.6875C21.5587 6.71875 22.4024 7.5625 23.4337 7.5625Z" fill="#B0B7BD"/>
<path d="M29.0587 13.1875L23.4337 7.5625H29.0587V13.1875Z" fill="#CAD1D8"/>
<path d="M25.3087 24.4375C25.3087 24.9531 24.8868 25.375 24.3712 25.375H3.74615C3.23053 25.375 2.80865 24.9531 2.80865 24.4375V15.0625C2.80865 14.5469 3.23053 14.125 3.74615 14.125H24.3712C24.8868 14.125 25.3087 14.5469 25.3087 15.0625V24.4375Z" fill="#F15642"/>
<path d="M6.89526 17.8251C6.89526 17.5776 7.09026 17.3076 7.40433 17.3076H9.13589C10.1109 17.3076 10.9884 17.9601 10.9884 19.2107C10.9884 20.3957 10.1109 21.0557 9.13589 21.0557H7.88433V22.0457C7.88433 22.3757 7.67433 22.5623 7.40433 22.5623C7.15683 22.5623 6.89526 22.3757 6.89526 22.0457V17.8251ZM7.88433 18.2517V20.1192H9.13589C9.63839 20.1192 10.0359 19.6757 10.0359 19.2107C10.0359 18.6867 9.63839 18.2517 9.13589 18.2517H7.88433Z" fill="white"/>
<path d="M12.4564 22.5622C12.2089 22.5622 11.9389 22.4272 11.9389 22.0981V17.84C11.9389 17.5709 12.2089 17.375 12.4564 17.375H14.173C17.5986 17.375 17.5236 22.5622 14.2405 22.5622H12.4564ZM12.9289 18.29V21.6481H14.173C16.1971 21.6481 16.2871 18.29 14.173 18.29H12.9289Z" fill="white"/>
<path d="M18.7384 18.35V19.5415H20.65C20.92 19.5415 21.19 19.8115 21.19 20.0731C21.19 20.3206 20.92 20.5231 20.65 20.5231H18.7384V22.0971C18.7384 22.3596 18.5518 22.5612 18.2893 22.5612C17.9593 22.5612 17.7578 22.3596 17.7578 22.0971V17.839C17.7578 17.57 17.9603 17.374 18.2893 17.374H20.9209C21.2509 17.374 21.4459 17.57 21.4459 17.839C21.4459 18.079 21.2509 18.349 20.9209 18.349H18.7384V18.35Z" fill="white"/>
<path d="M24.3712 25.375H6.55865V26.3125H24.3712C24.8868 26.3125 25.3087 25.8906 25.3087 25.375V24.4375C25.3087 24.9531 24.8868 25.375 24.3712 25.375Z" fill="#CAD1D8"/>
</g>
<defs>
<clipPath id="clip0_1297_1848">
<rect width="30" height="30" fill="white" transform="translate(0.933655 0.0625)"/>
</clipPath>
</defs>
</svg>
