<svg width="31" height="33" viewBox="0 0 31 33" fill="none" xmlns="http://www.w3.org/2000/svg">
<g clip-path="url(#clip0_3395_6794)">
<path d="M7.60953 -0.000244141C6.56329 -0.000244141 5.70728 0.904284 5.70728 2.00982V30.1507C5.70728 31.2562 6.56329 32.1608 7.60953 32.1608H26.632C27.6783 32.1608 28.5343 31.2562 28.5343 30.1507V8.04001L20.9253 -0.000244141H7.60953Z" fill="#E2E5E7"/>
<path d="M22.8274 8.04001H28.5342L20.9252 -0.000244141V6.02994C20.9252 7.13548 21.7812 8.04001 22.8274 8.04001Z" fill="#B0B7BD"/>
<path d="M28.534 14.0702L22.8273 8.04004H28.534V14.0702Z" fill="#CAD1D8"/>
<path d="M24.7295 26.1306C24.7295 26.6834 24.3015 27.1356 23.7783 27.1356H2.85359C2.33047 27.1356 1.90247 26.6834 1.90247 26.1306V16.0803C1.90247 15.5275 2.33047 15.0753 2.85359 15.0753H23.7783C24.3015 15.0753 24.7295 15.5275 24.7295 16.0803V26.1306Z" fill="#F7B84E"/>
<path d="M9.7634 24.1206C9.51991 23.9749 9.36773 23.6864 9.51991 23.3487L11.7018 18.8412C11.9072 18.415 12.4551 18.3989 12.6453 18.8412L14.7891 23.3487C15.1011 23.9749 14.1804 24.4734 13.9075 23.8472L13.5717 23.1397H10.7659L10.4387 23.8472C10.3179 24.1206 10.0364 24.1779 9.7634 24.1206ZM13.0324 22.0794L12.1736 20.0944L11.2386 22.0794H13.0324Z" fill="white"/>
<path d="M15.6973 19.0425C15.6973 18.3832 16.7017 18.3591 16.7017 19.0425V23.6295C16.7017 24.2968 15.6973 24.3129 15.6973 23.6295V19.0425Z" fill="white"/>
<path d="M23.7789 27.1359H5.70752V28.1409H23.7789C24.302 28.1409 24.73 27.6887 24.73 27.1359V26.1309C24.73 26.6836 24.302 27.1359 23.7789 27.1359Z" fill="#CAD1D8"/>
</g>
<defs>
<clipPath id="clip0_3395_6794">
<rect width="30.436" height="32.161" fill="white"/>
</clipPath>
</defs>
</svg>
