<svg width="15" height="14" viewBox="0 0 15 14" fill="none" xmlns="http://www.w3.org/2000/svg">
<path fill-rule="evenodd" clip-rule="evenodd" d="M0.160889 9.06283V3.02116C0.160889 1.68647 1.20556 0.604492 2.49422 0.604492H11.8276C13.1162 0.604492 14.1609 1.68647 14.1609 3.02116V9.06283C14.1609 10.3975 13.1162 11.4795 11.8276 11.4795H2.62924L1.04341 13.0516C0.727801 13.3644 0.191399 13.1409 0.191399 12.6965V9.45464C0.171325 9.32711 0.160889 9.19623 0.160889 9.06283ZM4.84498 4.72949C4.84498 4.45335 5.06884 4.22949 5.34498 4.22949H11.345C11.6211 4.22949 11.845 4.45335 11.845 4.72949V4.93783C11.845 5.21397 11.6211 5.43783 11.345 5.43783H5.34498C5.06884 5.43783 4.84498 5.21397 4.84498 4.93783V4.72949ZM8.84498 6.64609C8.56884 6.64609 8.34498 6.86994 8.34498 7.14609V7.35442C8.34498 7.63056 8.56884 7.85442 8.84498 7.85442H11.345C11.6211 7.85442 11.845 7.63056 11.845 7.35442V7.14609C11.845 6.86994 11.6211 6.64609 11.345 6.64609H8.84498Z" fill="#FEA87E"/>
</svg>
