<svg width="29" height="28" viewBox="0 0 29 28" fill="none" xmlns="http://www.w3.org/2000/svg">
<path d="M14.5 0C6.4886 0 0 6.36012 0 14.2129C0 20.8923 4.67579 26.436 10.9842 27.9988C10.9114 27.821 10.8756 27.5718 10.8756 27.3238V24.907H9.06281C8.08421 24.907 7.17719 24.4813 6.7786 23.6986C6.30719 22.8459 6.23438 21.531 5.0386 20.7133C4.67579 20.4291 4.96579 20.1448 5.36438 20.1799C6.12579 20.3928 6.74157 20.8911 7.32157 21.6363C7.90157 22.3826 8.15579 22.5604 9.24298 22.5604C9.75017 22.5604 10.5474 22.5253 11.273 22.4177C11.6716 21.4222 12.3602 20.5343 13.1944 20.1085C8.33719 19.54 6.01719 17.1946 6.01719 13.9964C6.01719 12.6102 6.63298 11.2953 7.6486 10.1583C7.32281 9.05633 6.88719 6.78227 7.79421 5.89442C9.96983 5.89442 11.2742 7.28063 11.6 7.63504C12.6872 7.27942 13.8842 7.06653 15.1158 7.06653C16.3844 7.06653 17.5444 7.27942 18.6316 7.63504C18.9574 7.27942 20.263 5.89442 22.4374 5.89442C23.3074 6.74719 22.9088 9.05633 22.546 10.1583C23.5616 11.2602 24.1416 12.6102 24.1416 13.9964C24.1416 17.1946 21.8574 19.54 17.0372 20.0372C18.3786 20.7121 19.3214 22.6306 19.3214 24.0518V27.2888C19.3214 27.3952 19.2856 27.5016 19.2856 27.6081C24.94 25.6896 29 20.4315 29 14.2129C29 6.36012 22.5114 0 14.5 0Z" fill="#596482"/>
</svg>
