<svg width="28" height="30" viewBox="0 0 28 30" fill="none" xmlns="http://www.w3.org/2000/svg">
<path fill-rule="evenodd" clip-rule="evenodd" d="M25.9985 22.3877C26.3114 22.7118 26.8597 22.4892 26.8582 22.0387L26.838 16.1597V7.00185C26.838 5.31593 25.5184 3.94922 23.8906 3.94922H10.1362C8.50842 3.94922 7.18884 5.31593 7.18884 7.00185V11.1992H15.6667C17.3236 11.1992 18.6667 12.5424 18.6667 14.1992V19.2124H22.9326L25.9985 22.3877Z" fill="#FFF2D0"/>
<path opacity="0.3" fill-rule="evenodd" clip-rule="evenodd" d="M2.31592 22.0745V16.0329C2.31592 14.6982 3.36059 13.6162 4.64925 13.6162H13.9826C15.2712 13.6162 16.3159 14.6982 16.3159 16.0329V22.0745C16.3159 23.4092 15.2712 24.4912 13.9826 24.4912H4.78427L3.19844 26.0633C2.88283 26.3761 2.34643 26.1526 2.34643 25.7082V22.4664C2.32635 22.3388 2.31592 22.2079 2.31592 22.0745ZM7.00001 17.7412C7.00001 17.4651 7.22387 17.2412 7.50001 17.2412H13.5C13.7762 17.2412 14 17.4651 14 17.7412V17.9495C14 18.2257 13.7762 18.4495 13.5 18.4495H7.50001C7.22387 18.4495 7.00001 18.2257 7.00001 17.9495V17.7412ZM11 19.6578C10.7239 19.6578 10.5 19.8817 10.5 20.1578V20.3661C10.5 20.6423 10.7239 20.8661 11 20.8661H13.5C13.7762 20.8661 14 20.6423 14 20.3661V20.1578C14 19.8817 13.7762 19.6578 13.5 19.6578H11Z" fill="#FFF2D0"/>
</svg>
