<svg width="29" height="30" viewBox="0 0 29 30" fill="none" xmlns="http://www.w3.org/2000/svg">
<path fill-rule="evenodd" clip-rule="evenodd" d="M26.9322 22.4929C27.2451 22.8171 27.7935 22.5945 27.7919 22.1439L27.7717 16.265V7.10707C27.7717 5.42115 26.4521 4.05444 24.8243 4.05444H11.0699C9.44214 4.05444 8.12256 5.42115 8.12256 7.10707V11.3044H16.6004C18.2573 11.3044 19.6004 12.6476 19.6004 14.3044V19.3176H23.8664L26.9322 22.4929Z" fill="#371E2F"/>
<path opacity="0.3" fill-rule="evenodd" clip-rule="evenodd" d="M3.24951 22.1794V16.1377C3.24951 14.803 4.29418 13.7211 5.58284 13.7211H14.9162C16.2048 13.7211 17.2495 14.803 17.2495 16.1377V22.1794C17.2495 23.5141 16.2048 24.5961 14.9162 24.5961H5.71786L4.13203 26.1681C3.81642 26.481 3.28002 26.2574 3.28002 25.813V22.5712C3.25995 22.4437 3.24951 22.3128 3.24951 22.1794ZM7.9336 17.8461C7.9336 17.5699 8.15746 17.3461 8.4336 17.3461H14.4336C14.7097 17.3461 14.9336 17.5699 14.9336 17.8461V18.0544C14.9336 18.3305 14.7097 18.5544 14.4336 18.5544H8.4336C8.15746 18.5544 7.9336 18.3305 7.9336 18.0544V17.8461ZM11.9336 19.7627C11.6575 19.7627 11.4336 19.9865 11.4336 20.2627V20.471C11.4336 20.7471 11.6575 20.971 11.9336 20.971H14.4336C14.7097 20.971 14.9336 20.7471 14.9336 20.471V20.2627C14.9336 19.9865 14.7097 19.7627 14.4336 19.7627H11.9336Z" fill="#371E2F"/>
</svg>
