<svg width="15" height="15" viewBox="0 0 15 15" fill="none" xmlns="http://www.w3.org/2000/svg">
<g clip-path="url(#clip0_2_6561)">
<path opacity="0.25" d="M13.1836 6.24109C13.1836 9.44457 10.3688 12.1789 8.86132 13.4136C8.31477 13.8613 7.55242 13.8613 7.00587 13.4136C5.4984 12.1789 2.68359 9.44457 2.68359 6.24109C2.68359 3.34159 5.0341 0.991089 7.93359 0.991089C10.8331 0.991089 13.1836 3.34159 13.1836 6.24109Z" fill="#422438"/>
<path d="M9.68359 5.65771C9.68359 6.62421 8.90009 7.40771 7.93359 7.40771C6.9671 7.40771 6.18359 6.62421 6.18359 5.65771C6.18359 4.69122 6.9671 3.90771 7.93359 3.90771C8.90009 3.90771 9.68359 4.69122 9.68359 5.65771Z" fill="#422438"/>
</g>
<defs>
<clipPath id="clip0_2_6561">
<rect width="14" height="14" fill="white" transform="translate(0.933594 0.407715)"/>
</clipPath>
</defs>
</svg>
