<svg width="150" height="59" viewBox="0 0 150 59" fill="none" xmlns="http://www.w3.org/2000/svg">
<path d="M9.02359 18.9781H8.70359L9.08759 24.2901V45.4741H0.767594V0.674118H8.44759L23.9356 28.0661H24.2556L23.6796 22.6901V0.674118H31.9996V45.4741H24.3196L9.02359 18.9781ZM54.8226 36.4501H57.2546L63.4626 13.4741H72.0386L62.9506 42.3381C62.1399 44.7275 61.3506 46.9035 60.5826 48.8661C59.8146 50.8715 58.9186 52.5995 57.8946 54.0501C56.8706 55.5008 55.6546 56.6101 54.2466 57.3781C52.8813 58.1888 51.1959 58.5941 49.1906 58.5941C48.2093 58.5941 47.2706 58.4661 46.3746 58.2101C45.5213 57.9541 44.7319 57.6341 44.0066 57.2501C43.2813 56.9088 42.6413 56.5248 42.0866 56.0981C41.5319 55.7141 41.0839 55.3515 40.7426 55.0101L45.0306 49.3141C45.5853 49.7835 46.2466 50.2101 47.0146 50.5941C47.7826 51.0208 48.5079 51.2341 49.1906 51.2341C50.4706 51.2341 51.4733 50.7861 52.1986 49.8901C52.9666 48.9941 53.6919 47.5221 54.3746 45.4741H49.8306L36.5186 13.4741H45.5426L54.8226 36.4501ZM74.7016 13.4741H85.9016L86.8616 17.6981H87.1176C88.0989 16.3328 89.5069 15.1381 91.3416 14.1141C93.1763 13.0901 95.3736 12.5781 97.9336 12.5781C99.5123 12.5781 100.984 12.7915 102.35 13.2181C103.758 13.6448 104.952 14.3488 105.934 15.3301C106.915 16.3115 107.683 17.6555 108.238 19.3621C108.835 21.0261 109.134 23.0955 109.134 25.5701V45.4741H100.814V27.2981C100.814 24.6955 100.216 22.8181 99.0216 21.6661C97.8696 20.5141 96.3976 19.9381 94.6056 19.9381C93.0269 19.9381 91.5763 20.4075 90.2536 21.3461C88.9736 22.2421 88.0989 23.3728 87.6296 24.7381V45.4741H79.3096V20.5141H74.7016V13.4741ZM125.813 28.9621L114.677 13.4741H124.597L131.829 24.1621L139.381 13.4741H148.405L137.461 28.8341L149.045 45.4741H139.381L131.253 33.6981L122.997 45.4741H113.909L125.813 28.9621Z" fill="#422438"/>
</svg>
