<svg width="80" height="49" viewBox="0 0 80 49" fill="none" xmlns="http://www.w3.org/2000/svg">
<rect y="0.0996094" width="80" height="48" rx="6" fill="#F6F8FA"/>
<g clip-path="url(#clip0_1350_2871)">
<path d="M47.129 36.0649H33.8779V12.3271H47.1292L47.129 36.0649Z" fill="#FF5F00"/>
<path d="M34.718 24.1958C34.718 19.3806 36.9798 15.0912 40.502 12.3269C37.8359 10.2314 34.5384 9.09414 31.1432 9.09914C22.7796 9.09914 16 15.8581 16 24.1958C16 32.5336 22.7796 39.2925 31.1432 39.2925C34.5385 39.2976 37.8361 38.1603 40.5022 36.0647C36.9803 33.3009 34.718 29.0113 34.718 24.1958Z" fill="#EB001B"/>
<path d="M65.0064 24.1963C65.0064 32.5341 58.2267 39.293 49.8632 39.293C46.4675 39.298 43.1696 38.1607 40.5029 36.0652C44.026 33.3009 46.2879 29.0118 46.2879 24.1963C46.2879 19.3809 44.026 15.0917 40.5029 12.3274C43.1695 10.232 46.4674 9.09471 49.8629 9.09963C58.2265 9.09963 65.0061 15.8585 65.0061 24.1963" fill="#F79E1B"/>
</g>
<defs>
<clipPath id="clip0_1350_2871">
<rect width="49" height="38" fill="white" transform="translate(16 9.09961)"/>
</clipPath>
</defs>
</svg>
