<svg width="82" height="32" viewBox="0 0 82 32" fill="none" xmlns="http://www.w3.org/2000/svg">
<g clip-path="url(#clip0_9835_399)">
<path d="M32.4377 16.7758L28.1776 6.89795H22.2788L29.8532 22.4104L25.4205 31.1071H31.2509L42.3859 6.89795H36.5556L32.4377 16.7758Z" fill="#FFE3C5"/>
<path d="M74.8346 15.42L80.8718 6.89795H74.4856L70.8538 12.3251L67.2247 6.89795H60.799L66.8743 15.4542L60.6606 24.1849H67.0837L70.8538 18.5162L74.6239 24.1849H81.047L74.8346 15.42Z" fill="#FFE3C5"/>
<path d="M42.627 24.1847H48.2136V12.6294L42.627 18.1957V24.1847Z" fill="#FFE3C5"/>
<path d="M57.8153 8.38754C56.8813 7.38903 55.6199 6.75597 54.2586 6.60254L49.8721 10.9705H50.9035C50.9799 10.9705 51.0629 10.9627 51.1459 10.9627C51.2289 10.9627 51.3 10.9627 51.3764 10.9705C52.9269 11.0795 53.9741 12.2634 53.9741 13.9893V24.1796H59.5568V13.1939C59.562 12.4441 59.4609 11.6974 59.2564 10.9758C58.9879 10.0118 58.494 9.12485 57.8153 8.38754V8.38754Z" fill="#FFE3C5"/>
<path d="M49.872 7.06445H44.2893V12.6295H49.872V7.06445Z" fill="#FEA87E"/>
<path d="M15.1983 0.106934H21.0919V24.1835H13.6373L5.94042 8.1552V24.1835H0.046875V0.106934H7.53566L15.1983 16.1313V0.106934Z" fill="#FFE3C5"/>
</g>
<defs>
<clipPath id="clip0_9835_399">
<rect width="81" height="31" fill="white" transform="translate(0.046875 0.106934)"/>
</clipPath>
</defs>
</svg>
