<svg width="82" height="32" viewBox="0 0 82 32" fill="none" xmlns="http://www.w3.org/2000/svg">
<g clip-path="url(#clip0_9835_3161)">
<path d="M32.4376 16.7758L28.1775 6.89795H22.2787L29.8531 22.4104L25.4204 31.1071H31.2507L42.3858 6.89795H36.5554L32.4376 16.7758Z" fill="#422438"/>
<path d="M74.8345 15.42L80.8716 6.89795H74.4854L70.8537 12.3251L67.2246 6.89795H60.7988L66.8742 15.4542L60.6605 24.1849H67.0836L70.8537 18.5162L74.6238 24.1849H81.0468L74.8345 15.42Z" fill="#422438"/>
<path d="M42.6268 24.1847H48.2135V12.6294L42.6268 18.1957V24.1847Z" fill="#422438"/>
<path d="M57.8152 8.38754C56.8812 7.38903 55.6198 6.75597 54.2585 6.60254L49.8719 10.9705H50.9034C50.9798 10.9705 51.0628 10.9627 51.1458 10.9627C51.2288 10.9627 51.2999 10.9627 51.3763 10.9705C52.9267 11.0795 53.974 12.2634 53.974 13.9893V24.1796H59.5566V13.1939C59.5619 12.4441 59.4608 11.6974 59.2563 10.9758C58.9877 10.0118 58.4939 9.12485 57.8152 8.38754Z" fill="#422438"/>
<path d="M49.872 7.06445H44.2893V12.6295H49.872V7.06445Z" fill="#A23842"/>
<path d="M15.1983 0.106934H21.0919V24.1835H13.6373L5.94042 8.1552V24.1835H0.046875V0.106934H7.53566L15.1983 16.1313V0.106934Z" fill="#422438"/>
</g>
<defs>
<clipPath id="clip0_9835_3161">
<rect width="81" height="31" fill="white" transform="translate(0.046875 0.106934)"/>
</clipPath>
</defs>
</svg>
