<svg width="25" height="25" viewBox="0 0 25 25" fill="none" xmlns="http://www.w3.org/2000/svg">
<path opacity="0.3" d="M12.3766 22.3389C14.0334 22.3389 15.3766 20.9957 15.3766 19.3389C15.3766 17.682 14.0334 16.3389 12.3766 16.3389C10.7197 16.3389 9.37656 17.682 9.37656 19.3389C9.37656 20.9957 10.7197 22.3389 12.3766 22.3389Z" fill="#FFE3C5"/>
<path d="M19.3766 15.3389V18.3389C19.3766 18.9389 18.9766 19.3389 18.3766 19.3389H6.37656C5.77656 19.3389 5.37656 18.9389 5.37656 18.3389V15.3389C6.47656 15.3389 7.37656 14.4389 7.37656 13.3389V10.3389C7.37656 7.93887 9.07656 5.93887 11.3766 5.43887V3.33887C11.3766 2.73887 11.7766 2.33887 12.3766 2.33887C12.9766 2.33887 13.3766 2.73887 13.3766 3.33887V5.43887C15.6766 5.93887 17.3766 7.93887 17.3766 10.3389V13.3389C17.3766 14.4389 18.2766 15.3389 19.3766 15.3389ZM11.3766 10.3389C11.3766 9.73887 11.7766 9.33887 12.3766 9.33887C12.9766 9.33887 13.3766 8.93887 13.3766 8.33887C13.3766 7.73887 12.9766 7.33887 12.3766 7.33887C10.6766 7.33887 9.37656 8.63887 9.37656 10.3389C9.37656 10.9389 9.77656 11.3389 10.3766 11.3389C10.9766 11.3389 11.3766 10.9389 11.3766 10.3389Z" fill="#FFE3C5"/>
</svg>
