<svg width="64" height="64" viewBox="0 0 64 64" fill="none" xmlns="http://www.w3.org/2000/svg">
<circle cx="32.3238" cy="32.3168" r="31.35" fill="#422438"/>
<path opacity="0.3" d="M32.3238 47.2463C34.7972 47.2463 36.8024 45.2411 36.8024 42.7677C36.8024 40.2942 34.7972 38.2891 32.3238 38.2891C29.8503 38.2891 27.8452 40.2942 27.8452 42.7677C27.8452 45.2411 29.8503 47.2463 32.3238 47.2463Z" fill="#FFE3C5"/>
<path d="M42.7738 36.796V41.2746C42.7738 42.1703 42.1767 42.7675 41.281 42.7675H23.3665C22.4708 42.7675 21.8737 42.1703 21.8737 41.2746V36.796C23.5158 36.796 24.8594 35.4524 24.8594 33.8102V29.3316C24.8594 25.7487 27.3973 22.763 30.8309 22.0166V18.8815C30.8309 17.9858 31.428 17.3887 32.3237 17.3887C33.2195 17.3887 33.8166 17.9858 33.8166 18.8815V22.0166C37.2502 22.763 39.7881 25.7487 39.7881 29.3316V33.8102C39.7881 35.4524 41.1317 36.796 42.7738 36.796ZM30.8309 29.3316C30.8309 28.4359 31.428 27.8388 32.3237 27.8388C33.2195 27.8388 33.8166 27.2416 33.8166 26.3459C33.8166 25.4502 33.2195 24.853 32.3237 24.853C29.7859 24.853 27.8451 26.7938 27.8451 29.3316C27.8451 30.2274 28.4423 30.8245 29.338 30.8245C30.2337 30.8245 30.8309 30.2274 30.8309 29.3316Z" fill="#FFE3C5"/>
<circle cx="41.0017" cy="25.5988" r="5.96792" fill="#FEA87E" stroke="#553947" stroke-width="1.5"/>
</svg>
