<svg width="75" height="13" viewBox="0 0 75 13" fill="none" xmlns="http://www.w3.org/2000/svg">
<rect width="75" height="13" rx="2" fill="#FEA87E"/>
<path d="M29.328 9.5H28.208L25.672 5.668V9.5H24.552V3.908H25.672L28.208 7.748V3.908H29.328V9.5ZM32.4028 9.572C31.9761 9.572 31.5921 9.47867 31.2508 9.292C30.9095 9.1 30.6401 8.83067 30.4428 8.484C30.2508 8.13733 30.1548 7.73733 30.1548 7.284C30.1548 6.83067 30.2535 6.43067 30.4508 6.084C30.6535 5.73733 30.9281 5.47067 31.2748 5.284C31.6215 5.092 32.0081 4.996 32.4348 4.996C32.8615 4.996 33.2481 5.092 33.5948 5.284C33.9415 5.47067 34.2135 5.73733 34.4108 6.084C34.6135 6.43067 34.7148 6.83067 34.7148 7.284C34.7148 7.73733 34.6108 8.13733 34.4028 8.484C34.2001 8.83067 33.9228 9.1 33.5708 9.292C33.2241 9.47867 32.8348 9.572 32.4028 9.572ZM32.4028 8.596C32.6055 8.596 32.7948 8.548 32.9708 8.452C33.1521 8.35067 33.2961 8.20133 33.4028 8.004C33.5095 7.80667 33.5628 7.56667 33.5628 7.284C33.5628 6.86267 33.4508 6.54 33.2268 6.316C33.0081 6.08667 32.7388 5.972 32.4188 5.972C32.0988 5.972 31.8295 6.08667 31.6108 6.316C31.3975 6.54 31.2908 6.86267 31.2908 7.284C31.2908 7.70533 31.3948 8.03067 31.6028 8.26C31.8161 8.484 32.0828 8.596 32.4028 8.596ZM37.3844 8.468L38.5044 5.068H39.6964L38.0564 9.5H36.6964L35.0644 5.068H36.2644L37.3844 8.468ZM40.8934 4.54C40.6961 4.54 40.5308 4.47867 40.3974 4.356C40.2694 4.228 40.2054 4.07067 40.2054 3.884C40.2054 3.69733 40.2694 3.54267 40.3974 3.42C40.5308 3.292 40.6961 3.228 40.8934 3.228C41.0908 3.228 41.2534 3.292 41.3814 3.42C41.5148 3.54267 41.5814 3.69733 41.5814 3.884C41.5814 4.07067 41.5148 4.228 41.3814 4.356C41.2534 4.47867 41.0908 4.54 40.8934 4.54ZM41.4454 5.068V9.5H40.3254V5.068H41.4454ZM42.264 7.284C42.264 6.82533 42.3573 6.42533 42.544 6.084C42.7307 5.73733 42.9893 5.47067 43.32 5.284C43.6507 5.092 44.0293 4.996 44.456 4.996C45.0053 4.996 45.4587 5.13467 45.816 5.412C46.1787 5.684 46.4213 6.068 46.544 6.564H45.336C45.272 6.372 45.1627 6.22267 45.008 6.116C44.8587 6.004 44.672 5.948 44.448 5.948C44.128 5.948 43.8747 6.06533 43.688 6.3C43.5013 6.52933 43.408 6.85733 43.408 7.284C43.408 7.70533 43.5013 8.03333 43.688 8.268C43.8747 8.49733 44.128 8.612 44.448 8.612C44.9013 8.612 45.1973 8.40933 45.336 8.004H46.544C46.4213 8.484 46.1787 8.86533 45.816 9.148C45.4533 9.43067 45 9.572 44.456 9.572C44.0293 9.572 43.6507 9.47867 43.32 9.292C42.9893 9.1 42.7307 8.83333 42.544 8.492C42.3573 8.14533 42.264 7.74267 42.264 7.284ZM51.4845 7.188C51.4845 7.348 51.4738 7.492 51.4525 7.62H48.2125C48.2392 7.94 48.3512 8.19067 48.5485 8.372C48.7458 8.55333 48.9885 8.644 49.2765 8.644C49.6925 8.644 49.9885 8.46533 50.1645 8.108H51.3725C51.2445 8.53467 50.9992 8.88667 50.6365 9.164C50.2738 9.436 49.8285 9.572 49.3005 9.572C48.8738 9.572 48.4898 9.47867 48.1485 9.292C47.8125 9.1 47.5485 8.83067 47.3565 8.484C47.1698 8.13733 47.0765 7.73733 47.0765 7.284C47.0765 6.82533 47.1698 6.42267 47.3565 6.076C47.5432 5.72933 47.8045 5.46267 48.1405 5.276C48.4765 5.08933 48.8632 4.996 49.3005 4.996C49.7218 4.996 50.0978 5.08667 50.4285 5.268C50.7645 5.44933 51.0232 5.708 51.2045 6.044C51.3912 6.37467 51.4845 6.756 51.4845 7.188ZM50.3245 6.868C50.3192 6.58 50.2152 6.35067 50.0125 6.18C49.8098 6.004 49.5618 5.916 49.2685 5.916C48.9912 5.916 48.7565 6.00133 48.5645 6.172C48.3778 6.33733 48.2632 6.56933 48.2205 6.868H50.3245Z" fill="#422438"/>
</svg>
