<svg width="75" height="13" viewBox="0 0 75 13" fill="none" xmlns="http://www.w3.org/2000/svg">
<rect width="75" height="13" rx="2" fill="#011F42"/>
<path d="M17.828 9.5H16.708L14.172 5.668V9.5H13.052V3.908H14.172L16.708 7.748V3.908H17.828V9.5ZM23.1748 5.068L20.4308 11.596H19.2388L20.1988 9.388L18.4228 5.068H19.6788L20.8228 8.164L21.9828 5.068H23.1748ZM26.2346 5.004C26.7626 5.004 27.1892 5.172 27.5146 5.508C27.8399 5.83867 28.0026 6.30267 28.0026 6.9V9.5H26.8826V7.052C26.8826 6.7 26.7946 6.43067 26.6186 6.244C26.4426 6.052 26.2026 5.956 25.8986 5.956C25.5892 5.956 25.3439 6.052 25.1626 6.244C24.9866 6.43067 24.8986 6.7 24.8986 7.052V9.5H23.7786V5.068H24.8986V5.62C25.0479 5.428 25.2372 5.27867 25.4666 5.172C25.7012 5.06 25.9572 5.004 26.2346 5.004ZM31.5156 9.5L30.6036 8.124L29.7956 9.5H28.5956L30.0436 7.276L28.5796 5.068H29.8436L30.7476 6.436L31.5636 5.068H32.7636L31.3076 7.276L32.7796 9.5H31.5156ZM35.0222 6.7C35.0222 6.15067 35.1449 5.66 35.3902 5.228C35.6409 4.79067 35.9795 4.452 36.4062 4.212C36.8382 3.96667 37.3209 3.844 37.8542 3.844C38.4782 3.844 39.0249 4.004 39.4942 4.324C39.9635 4.644 40.2915 5.08667 40.4782 5.652H39.1902C39.0622 5.38533 38.8809 5.18533 38.6462 5.052C38.4169 4.91867 38.1502 4.852 37.8462 4.852C37.5209 4.852 37.2302 4.92933 36.9742 5.084C36.7235 5.23333 36.5262 5.44667 36.3822 5.724C36.2435 6.00133 36.1742 6.32667 36.1742 6.7C36.1742 7.068 36.2435 7.39333 36.3822 7.676C36.5262 7.95333 36.7235 8.16933 36.9742 8.324C37.2302 8.47333 37.5209 8.548 37.8462 8.548C38.1502 8.548 38.4169 8.48133 38.6462 8.348C38.8809 8.20933 39.0622 8.00667 39.1902 7.74H40.4782C40.2915 8.31067 39.9635 8.756 39.4942 9.076C39.0302 9.39067 38.4835 9.548 37.8542 9.548C37.3209 9.548 36.8382 9.428 36.4062 9.188C35.9795 8.94267 35.6409 8.604 35.3902 8.172C35.1449 7.74 35.0222 7.24933 35.0222 6.7ZM43.9308 5.004C44.2668 5.004 44.5655 5.07867 44.8268 5.228C45.0881 5.372 45.2908 5.588 45.4348 5.876C45.5841 6.15867 45.6588 6.5 45.6588 6.9V9.5H44.5388V7.052C44.5388 6.7 44.4508 6.43067 44.2748 6.244C44.0988 6.052 43.8588 5.956 43.5548 5.956C43.2455 5.956 43.0001 6.052 42.8188 6.244C42.6428 6.43067 42.5548 6.7 42.5548 7.052V9.5H41.4348V3.58H42.5548V5.62C42.6988 5.428 42.8908 5.27867 43.1308 5.172C43.3708 5.06 43.6375 5.004 43.9308 5.004ZM48.6919 9.572C48.2652 9.572 47.8812 9.47867 47.5399 9.292C47.1985 9.1 46.9292 8.83067 46.7319 8.484C46.5399 8.13733 46.4439 7.73733 46.4439 7.284C46.4439 6.83067 46.5425 6.43067 46.7399 6.084C46.9425 5.73733 47.2172 5.47067 47.5639 5.284C47.9105 5.092 48.2972 4.996 48.7239 4.996C49.1505 4.996 49.5372 5.092 49.8839 5.284C50.2305 5.47067 50.5025 5.73733 50.6999 6.084C50.9025 6.43067 51.0039 6.83067 51.0039 7.284C51.0039 7.73733 50.8999 8.13733 50.6919 8.484C50.4892 8.83067 50.2119 9.1 49.8599 9.292C49.5132 9.47867 49.1239 9.572 48.6919 9.572ZM48.6919 8.596C48.8945 8.596 49.0839 8.548 49.2599 8.452C49.4412 8.35067 49.5852 8.20133 49.6919 8.004C49.7985 7.80667 49.8519 7.56667 49.8519 7.284C49.8519 6.86267 49.7399 6.54 49.5159 6.316C49.2972 6.08667 49.0279 5.972 48.7079 5.972C48.3879 5.972 48.1185 6.08667 47.8999 6.316C47.6865 6.54 47.5799 6.86267 47.5799 7.284C47.5799 7.70533 47.6839 8.03067 47.8919 8.26C48.1052 8.484 48.3719 8.596 48.6919 8.596ZM52.3934 4.54C52.1961 4.54 52.0308 4.47867 51.8974 4.356C51.7694 4.228 51.7054 4.07067 51.7054 3.884C51.7054 3.69733 51.7694 3.54267 51.8974 3.42C52.0308 3.292 52.1961 3.228 52.3934 3.228C52.5908 3.228 52.7534 3.292 52.8814 3.42C53.0148 3.54267 53.0814 3.69733 53.0814 3.884C53.0814 4.07067 53.0148 4.228 52.8814 4.356C52.7534 4.47867 52.5908 4.54 52.3934 4.54ZM52.9454 5.068V9.5H51.8254V5.068H52.9454ZM53.764 7.284C53.764 6.82533 53.8573 6.42533 54.044 6.084C54.2307 5.73733 54.4893 5.47067 54.82 5.284C55.1507 5.092 55.5293 4.996 55.956 4.996C56.5053 4.996 56.9587 5.13467 57.316 5.412C57.6787 5.684 57.9213 6.068 58.044 6.564H56.836C56.772 6.372 56.6627 6.22267 56.508 6.116C56.3587 6.004 56.172 5.948 55.948 5.948C55.628 5.948 55.3747 6.06533 55.188 6.3C55.0013 6.52933 54.908 6.85733 54.908 7.284C54.908 7.70533 55.0013 8.03333 55.188 8.268C55.3747 8.49733 55.628 8.612 55.948 8.612C56.4013 8.612 56.6973 8.40933 56.836 8.004H58.044C57.9213 8.484 57.6787 8.86533 57.316 9.148C56.9533 9.43067 56.5 9.572 55.956 9.572C55.5293 9.572 55.1507 9.47867 54.82 9.292C54.4893 9.1 54.2307 8.83333 54.044 8.492C53.8573 8.14533 53.764 7.74267 53.764 7.284ZM62.9845 7.188C62.9845 7.348 62.9738 7.492 62.9525 7.62H59.7125C59.7392 7.94 59.8512 8.19067 60.0485 8.372C60.2458 8.55333 60.4885 8.644 60.7765 8.644C61.1925 8.644 61.4885 8.46533 61.6645 8.108H62.8725C62.7445 8.53467 62.4992 8.88667 62.1365 9.164C61.7738 9.436 61.3285 9.572 60.8005 9.572C60.3738 9.572 59.9898 9.47867 59.6485 9.292C59.3125 9.1 59.0485 8.83067 58.8565 8.484C58.6698 8.13733 58.5765 7.73733 58.5765 7.284C58.5765 6.82533 58.6698 6.42267 58.8565 6.076C59.0432 5.72933 59.3045 5.46267 59.6405 5.276C59.9765 5.08933 60.3632 4.996 60.8005 4.996C61.2218 4.996 61.5978 5.08667 61.9285 5.268C62.2645 5.44933 62.5232 5.708 62.7045 6.044C62.8912 6.37467 62.9845 6.756 62.9845 7.188ZM61.8245 6.868C61.8192 6.58 61.7152 6.35067 61.5125 6.18C61.3098 6.004 61.0618 5.916 60.7685 5.916C60.4912 5.916 60.2565 6.00133 60.0645 6.172C59.8778 6.33733 59.7632 6.56933 59.7205 6.868H61.8245Z" fill="#FFF2D0"/>
</svg>
