<svg width="53" height="19" viewBox="0 0 53 19" fill="none" xmlns="http://www.w3.org/2000/svg">
<path fill-rule="evenodd" clip-rule="evenodd" d="M7.38145 7.38667C7.25618 6.50615 6.52382 5.75282 5.48309 5.48867C4.27855 5.18538 3.074 5.31256 1.86945 5.49845C1.71527 5.51802 1.67673 5.62564 1.63818 5.78217C1.40691 7.02468 1.17564 8.2574 0.944364 9.49012C0.713091 10.7228 0.481818 11.9653 0.250545 13.1981C0.192727 13.472 0.144545 13.7459 0.0963636 14.0297C0.0674545 14.2156 0.0289091 14.4014 0 14.5873C0.154182 14.5873 0.308364 14.5873 0.462545 14.5873C0.905818 14.5873 1.33945 14.5873 1.77309 14.5775C1.82127 14.5775 1.88873 14.4504 1.89836 14.3721C2.08145 13.4133 2.26455 12.4643 2.438 11.5055C2.46691 11.3196 2.52473 11.2609 2.71745 11.2805C3.53655 11.3588 4.33636 11.2903 5.12655 11.0359C6.62018 10.5467 7.632 9.13791 7.38145 7.38667ZM5.34818 8.70744C5.03982 9.35315 4.50982 9.66622 3.84491 9.73471C3.61364 9.76406 3.37273 9.75427 3.12218 9.74449C3.00655 9.74449 2.88127 9.73471 2.756 9.73471C2.84273 9.3238 2.91018 8.91289 2.98727 8.52155C3.08364 8.02259 3.17036 7.5432 3.25709 7.06381C3.27636 7.00511 3.35345 6.91706 3.41127 6.90727C3.88345 6.83879 4.346 6.80944 4.79891 6.97576C5.44455 7.20078 5.68545 7.97368 5.34818 8.70744Z" fill="black"/>
<path fill-rule="evenodd" clip-rule="evenodd" d="M13.7222 8.01281C13.5295 7.98346 13.3367 7.95411 13.1536 7.91498C12.7971 7.85627 12.4502 7.78779 12.0936 7.76822C11.024 7.70952 9.99291 7.89541 9.08709 8.52155C7.66091 9.51947 7.06345 10.9479 7.13091 12.6795C7.15982 13.5014 7.47782 14.2058 8.24873 14.558C9.02927 14.92 9.79054 14.8026 10.4651 14.2743C10.6867 14.0982 10.8795 13.8829 11.0818 13.6579C11.1782 13.5503 11.2745 13.4427 11.3709 13.335C11.3613 13.4329 11.3613 13.5307 11.3516 13.6285C11.342 13.8633 11.3324 14.0982 11.3131 14.3232C11.2938 14.5286 11.3613 14.6069 11.5733 14.5971C11.9684 14.5873 12.3731 14.5873 12.7682 14.5971C12.9802 14.6069 13.0284 14.5188 13.0476 14.3134C13.0573 14.2058 13.0573 14.1079 13.0669 14.0003C13.1055 13.4035 13.144 12.8067 13.2307 12.2295C13.3945 11.212 13.5873 10.1945 13.78 9.17705C13.8282 8.90311 13.886 8.62917 13.9342 8.35523C13.9727 8.16935 13.9438 8.04216 13.7222 8.01281ZM11.6793 10.1456C11.554 10.9479 11.4287 11.7403 10.9758 12.4447C10.8602 12.6306 10.706 12.7872 10.5422 12.9339C10.2724 13.1687 9.95436 13.2763 9.60745 13.1296C9.26055 12.9828 9.13527 12.6698 9.116 12.3371C9.04855 11.2414 9.41473 10.3315 10.2435 9.62709C10.6771 9.25532 11.1975 9.12813 11.8238 9.30423C11.766 9.58796 11.7275 9.86189 11.6793 10.1456Z" fill="black"/>
<path fill-rule="evenodd" clip-rule="evenodd" d="M26.4711 8.3161C25.7965 7.80736 25.0256 7.69974 24.2065 7.79757C21.4602 8.11065 20.3327 11.075 20.9205 12.9633C21.2771 14.1177 22.2407 14.7536 23.9464 14.7536C25.1124 14.7243 26.2784 14.0492 27.0011 12.66C27.3865 11.9164 27.5311 11.1142 27.4733 10.2826C27.4251 9.48034 27.1071 8.80527 26.4711 8.3161ZM24.7655 12.7774C24.5438 13.0513 24.274 13.2372 23.9175 13.2763C23.2815 13.335 22.7996 12.8948 22.7515 12.2099C22.7515 12.1414 22.7515 12.073 22.7515 12.0045C22.7515 11.9751 22.7515 11.936 22.7515 11.9066C22.7707 11.1533 22.9538 10.4587 23.3971 9.83254C23.5995 9.55861 23.85 9.35315 24.1776 9.27488C24.8618 9.11835 25.4207 9.51947 25.4785 10.2728C25.546 11.1827 25.334 12.0338 24.7655 12.7774Z" fill="black"/>
<path fill-rule="evenodd" clip-rule="evenodd" d="M33.2647 7.79757C32.4264 7.6606 31.7036 7.90519 31.0676 8.47264C30.952 8.58025 30.8364 8.68787 30.7111 8.80527C30.6533 8.86398 30.5955 8.91289 30.5376 8.97159C30.5665 8.62917 30.5955 8.28675 30.6244 7.93454H28.9958C28.6007 10.1554 28.196 12.3567 27.772 14.6069C27.8973 14.6069 28.0225 14.6069 28.1478 14.6069C28.6296 14.6069 29.0825 14.6069 29.5355 14.5971C29.6029 14.5873 29.6993 14.4601 29.7185 14.3721C29.8245 13.8144 29.9209 13.2568 30.0269 12.6893C30.0558 12.523 30.0847 12.3665 30.1136 12.2002C30.2293 11.5447 30.3449 10.8794 30.6822 10.2826C30.9038 9.88146 31.1833 9.50969 31.6458 9.36293C32.118 9.21618 32.4842 9.4412 32.542 9.94016C32.5613 10.0869 32.5709 10.2337 32.5516 10.3804C32.4264 11.2218 32.2818 12.0632 32.1373 12.9046C32.0409 13.4524 31.9349 14.0003 31.8385 14.5482C31.8482 14.558 31.8675 14.558 31.8771 14.5678C31.906 14.5873 31.9253 14.5971 31.9445 14.5971C32.4938 14.6069 33.0527 14.6069 33.602 14.5971C33.6695 14.5873 33.7658 14.4699 33.7851 14.3819C33.9104 13.7362 34.0356 13.0904 34.1609 12.435C34.2187 12.1414 34.2765 11.8382 34.3247 11.5447L34.3536 11.3881C34.4885 10.6544 34.6331 9.93038 34.5464 9.16726C34.4404 8.4335 33.9585 7.91498 33.2647 7.79757Z" fill="black"/>
<path fill-rule="evenodd" clip-rule="evenodd" d="M40.068 7.91498C38.8442 7.5432 37.7264 7.80736 36.7724 8.62917C35.6064 9.63687 35.1727 10.9674 35.3462 12.4937C35.4618 13.5698 36.04 14.3427 37.0904 14.6167C38.2178 14.9102 39.326 14.7536 40.4053 14.3134C40.4824 14.284 40.5691 14.1569 40.5691 14.0786C40.5498 13.7557 40.5209 13.4427 40.492 13.1198C40.4824 13.0415 40.4727 12.9633 40.4727 12.885C40.4535 12.885 40.4342 12.885 40.4245 12.885C40.4053 12.885 40.3956 12.885 40.386 12.885C40.3185 12.9143 40.2415 12.9339 40.1836 12.9633C39.5669 13.2079 38.9309 13.3057 38.2756 13.2274C37.5915 13.1394 37.1385 12.66 37.1867 11.9751C37.3313 11.9751 37.4662 11.9751 37.6107 11.9751C37.8902 11.9751 38.1696 11.9849 38.4395 11.9751C39.1044 11.936 39.75 11.8284 40.3475 11.5153C41.1184 11.124 41.4749 10.4783 41.4171 9.63687C41.3304 8.78571 40.8775 8.16935 40.068 7.91498ZM39.2393 10.3413C38.8442 10.5467 37.8324 10.6739 37.3409 10.5663C37.4469 9.69557 38.3527 9.02051 39.114 9.2064C39.3742 9.27488 39.5573 9.41185 39.6055 9.68579C39.644 9.96951 39.5091 10.1945 39.2393 10.3413Z" fill="black"/>
<path fill-rule="evenodd" clip-rule="evenodd" d="M46.428 7.91498C45.0307 7.52364 43.8165 7.90519 42.824 8.97159C41.9085 9.96951 41.5616 11.1729 41.7255 12.5132C41.8507 13.5601 42.3904 14.3232 43.4215 14.6069C44.5682 14.9297 45.6956 14.7732 46.7845 14.3134C46.852 14.284 46.9484 14.1569 46.9387 14.0786C46.9291 13.8144 46.9002 13.5405 46.8713 13.2666C46.8616 13.1296 46.8424 12.9926 46.8327 12.8556C46.7749 12.8752 46.7171 12.9046 46.6689 12.9241C46.6111 12.9437 46.5533 12.973 46.5051 12.9926C45.898 13.2176 45.2813 13.3155 44.6453 13.2372C43.9611 13.1492 43.5082 12.66 43.566 12.0143C43.7587 12.0143 43.9418 12.0143 44.1153 12.024C44.9922 12.0045 45.8498 11.9458 46.6593 11.5642C47.4591 11.1827 47.8445 10.537 47.7964 9.67601C47.7385 8.78571 47.2856 8.15956 46.428 7.91498ZM45.6764 10.3119C45.4451 10.4196 45.1849 10.4978 44.9344 10.537C44.6645 10.5761 44.3851 10.5859 44.1056 10.6054C43.99 10.6152 43.8744 10.6152 43.7587 10.625C43.8455 9.70536 44.7898 9.00094 45.5415 9.21618C45.792 9.28467 45.9751 9.41185 46.0136 9.68579C46.0425 9.96951 45.9269 10.2043 45.6764 10.3119Z" fill="black"/>
<path fill-rule="evenodd" clip-rule="evenodd" d="M50.5138 9.24553L50.5235 9.11835C50.5524 8.72701 50.5813 8.33567 50.6198 7.91498C50.4849 7.91498 50.3596 7.91498 50.2247 7.91498C49.8489 7.91498 49.4827 7.91498 49.1165 7.92476C49.0684 7.93454 48.972 8.05194 48.9624 8.12043C48.8275 9.80319 48.4998 11.4468 48.1818 13.0807L48.1529 13.2372C48.0662 13.6775 47.9891 14.1177 47.912 14.6069C48.0373 14.6069 48.1625 14.6069 48.2878 14.6069C48.7793 14.6069 49.2515 14.6069 49.7236 14.5971C49.7718 14.5971 49.8393 14.4699 49.8489 14.3917C49.9164 14.0688 49.9742 13.7362 50.032 13.4133C50.1476 12.8067 50.2536 12.2002 50.3982 11.6131C50.7162 10.2924 51.2462 9.83254 52.5085 9.66622C52.5567 9.65644 52.6435 9.59774 52.6531 9.5586C52.7302 9.18683 52.8073 8.80527 52.8844 8.41393C52.9229 8.20848 52.9615 8.00303 53 7.79757C51.7762 7.64104 51.1016 8.36502 50.5138 9.24553Z" fill="black"/>
<path fill-rule="evenodd" clip-rule="evenodd" d="M31.1544 0.0489175C31.0869 0.0293505 31.0291 0.019567 30.9616 0C30.7593 0 30.5665 0 30.3545 0.0097835C30.2871 0.0293505 30.21 0.039134 30.1329 0.058701C30.0462 0.078268 29.9498 0.097835 29.8631 0.117402C28.8802 0.303289 27.9551 0.655495 27.0685 1.11532C25.1413 2.11324 23.4067 3.39488 21.8553 4.9211C20.8242 5.9288 19.822 6.97564 18.8487 8.06161C17.1527 9.95961 15.688 12.0435 14.5316 14.323C13.9342 15.5069 13.3945 16.7102 13.1536 18.031C13.1054 18.2756 13.1825 18.5495 13.2596 18.7941C13.2885 18.8919 13.4716 18.9604 13.5969 18.9996C13.6258 19.0093 13.7222 18.8528 13.7703 18.755C13.7896 18.7158 13.7993 18.6865 13.8185 18.6474C14.098 18.031 14.4738 17.1896 14.8014 16.632C15.4953 15.4579 16.0445 14.5481 16.8154 13.4327C18.0585 11.6326 19.5136 9.87155 21.0458 8.31598C22.4913 6.84845 23.9367 5.52768 25.7484 4.53955C26.5867 4.0895 27.4347 3.63946 28.3116 3.27747C29.8149 2.64155 31.3953 2.21107 33.0045 1.96648C33.178 1.93713 33.4093 1.80016 33.4671 1.6632C33.5153 1.53601 33.3996 1.28164 33.2744 1.16424C32.7829 0.645711 32.2047 0.254371 31.482 0.136969C31.3664 0.107619 31.2604 0.078268 31.1544 0.0489175ZM16.4685 8.96169C16.7769 8.11052 16.9311 7.23001 16.9504 6.32014C16.9407 6.22231 16.9311 6.12447 16.9311 6.02664C16.9214 5.83097 16.9022 5.6353 16.8733 5.43963C16.6998 3.92318 16.0542 2.63176 15.0423 1.53601C14.9171 1.40882 14.7533 1.31099 14.5894 1.25229C14.4256 1.1838 14.31 1.28164 14.3293 1.47731V1.48709C14.3389 1.65341 14.3582 1.82952 14.3871 1.98605C14.4353 2.25021 14.4738 2.50458 14.522 2.76873C14.6858 3.69816 14.84 4.6276 15.0134 5.55703C15.1869 6.49625 15.3796 7.4159 15.582 8.34533C15.6494 8.63883 15.7651 8.93234 15.9096 9.20628C16.0156 9.41173 16.1698 9.39216 16.3144 9.20628C16.3722 9.13779 16.43 9.05952 16.4685 8.96169Z" fill="#FC461E"/>
</svg>
