<svg width="30" height="31" viewBox="0 0 30 31" fill="none" xmlns="http://www.w3.org/2000/svg">
<g clip-path="url(#clip0_1343_2184)">
<path d="M7.5 0.821777C6.46875 0.821777 5.625 1.66553 5.625 2.69678V28.9468C5.625 29.978 6.46875 30.8218 7.5 30.8218H26.25C27.2812 30.8218 28.125 29.978 28.125 28.9468V8.32178L20.625 0.821777H7.5Z" fill="#E2E5E7"/>
<path d="M22.5 8.32178H28.125L20.625 0.821777V6.44678C20.625 7.47803 21.4688 8.32178 22.5 8.32178Z" fill="#B0B7BD"/>
<path d="M28.125 13.9468L22.5 8.32178H28.125V13.9468Z" fill="#CAD1D8"/>
<path d="M24.375 25.1968C24.375 25.7124 23.9531 26.1343 23.4375 26.1343H2.8125C2.29688 26.1343 1.875 25.7124 1.875 25.1968V15.8218C1.875 15.3062 2.29688 14.8843 2.8125 14.8843H23.4375C23.9531 14.8843 24.375 15.3062 24.375 15.8218V25.1968Z" fill="#F15642"/>
<path d="M5.96161 18.5849C5.96161 18.3374 6.15661 18.0674 6.47067 18.0674H8.20223C9.17723 18.0674 10.0547 18.7199 10.0547 19.9705C10.0547 21.1555 9.17723 21.8155 8.20223 21.8155H6.95067V22.8055C6.95067 23.1355 6.74067 23.3221 6.47067 23.3221C6.22317 23.3221 5.96161 23.1355 5.96161 22.8055V18.5849ZM6.95067 19.0114V20.8789H8.20223C8.70473 20.8789 9.10223 20.4355 9.10223 19.9705C9.10223 19.4464 8.70473 19.0114 8.20223 19.0114H6.95067Z" fill="white"/>
<path d="M11.5228 23.322C11.2753 23.322 11.0053 23.187 11.0053 22.8579V18.5998C11.0053 18.3307 11.2753 18.1348 11.5228 18.1348H13.2394C16.665 18.1348 16.59 23.322 13.3069 23.322H11.5228ZM11.9953 19.0498V22.4079H13.2394C15.2634 22.4079 15.3534 19.0498 13.2394 19.0498H11.9953Z" fill="white"/>
<path d="M17.8048 19.1097V20.3013H19.7163C19.9863 20.3013 20.2563 20.5713 20.2563 20.8328C20.2563 21.0803 19.9863 21.2829 19.7163 21.2829H17.8048V22.8569C17.8048 23.1194 17.6182 23.321 17.3557 23.321C17.0257 23.321 16.8242 23.1194 16.8242 22.8569V18.5988C16.8242 18.3297 17.0267 18.1338 17.3557 18.1338H19.9873C20.3173 18.1338 20.5123 18.3297 20.5123 18.5988C20.5123 18.8388 20.3173 19.1088 19.9873 19.1088H17.8048V19.1097Z" fill="white"/>
<path d="M23.4375 26.1343H5.625V27.0718H23.4375C23.9531 27.0718 24.375 26.6499 24.375 26.1343V25.1968C24.375 25.7124 23.9531 26.1343 23.4375 26.1343Z" fill="#CAD1D8"/>
</g>
<defs>
<clipPath id="clip0_1343_2184">
<rect width="30" height="30" fill="white" transform="translate(0 0.821777)"/>
</clipPath>
</defs>
</svg>
