<svg width="29" height="29" viewBox="0 0 29 29" fill="none" xmlns="http://www.w3.org/2000/svg">
<path opacity="0.3" d="M26.7171 13.7985V15.0818C26.7171 15.7818 26.2504 16.2485 25.6671 16.3652L24.1504 16.5986C23.9171 17.5319 23.5671 18.4652 22.9838 19.2818L23.9171 20.5651C24.2671 21.0318 24.2671 21.8485 23.8004 22.3151L22.8671 23.2485C22.4004 23.7152 21.7004 23.7152 21.1171 23.3652L19.8338 22.4319C19.0171 22.8986 18.0838 23.3652 17.1504 23.5986L16.9171 25.1152C16.8004 25.6985 16.2171 26.1652 15.6338 26.1652H14.3504C13.6504 26.1652 13.1838 25.6985 13.0671 25.1152L12.8338 23.5986C11.9004 23.3652 10.9671 23.0152 10.1504 22.4319L8.86709 23.3652C8.40042 23.7152 7.58376 23.7152 7.11709 23.2485L6.18376 22.3151C5.71709 21.8485 5.71709 21.1485 6.06709 20.5651L7.00042 19.2818C6.53375 18.4652 6.06709 17.5319 5.83375 16.5986L4.31709 16.3652C3.73375 16.2485 3.26709 15.6652 3.26709 15.0818V13.7985C3.26709 13.0985 3.73375 12.6319 4.31709 12.5152L5.83375 12.2818C6.06709 11.3485 6.41709 10.4152 7.00042 9.59857L6.06709 8.31512C5.71709 7.84846 5.71709 7.03179 6.18376 6.56512L7.11709 5.63188C7.58376 5.16521 8.28376 5.16524 8.86709 5.51524L10.1504 6.44849C10.9671 5.98182 11.9004 5.51515 12.8338 5.28182L13.0671 3.76524C13.1838 3.18191 13.7671 2.71521 14.3504 2.71521H15.6338C16.3338 2.71521 16.8004 3.18191 16.9171 3.76524L17.1504 5.28182C18.0838 5.51515 19.0171 5.86515 19.8338 6.44849L21.1171 5.51524C21.5837 5.16524 22.4004 5.16521 22.8671 5.63188L23.8004 6.56512C24.2671 7.03179 24.2671 7.73179 23.9171 8.31512L22.9838 9.59857C23.4504 10.4152 23.9171 11.3485 24.1504 12.2818L25.6671 12.5152C26.2504 12.6319 26.7171 13.2152 26.7171 13.7985ZM15.0504 10.4152C12.8338 10.4152 10.9671 12.2818 10.9671 14.4985C10.9671 16.7152 12.8338 18.5818 15.0504 18.5818C17.2671 18.5818 19.1338 16.7152 19.1338 14.4985C19.1338 12.2818 17.2671 10.4152 15.0504 10.4152Z" fill="#371E2F"/>
<path d="M20.8835 14.4985C20.8835 17.7652 18.3168 20.3318 15.0501 20.3318C11.7835 20.3318 9.2168 17.7652 9.2168 14.4985C9.2168 11.2318 11.7835 8.66516 15.0501 8.66516C18.3168 8.66516 20.8835 11.2318 20.8835 14.4985ZM15.0501 12.1652C13.7668 12.1652 12.7168 13.2152 12.7168 14.4985C12.7168 15.7818 13.7668 16.8318 15.0501 16.8318C16.3335 16.8318 17.3835 15.7818 17.3835 14.4985C17.3835 13.2152 16.3335 12.1652 15.0501 12.1652Z" fill="#371E2F"/>
</svg>
