<svg width="28" height="29" viewBox="0 0 28 29" fill="none" xmlns="http://www.w3.org/2000/svg">
<path opacity="0.3" d="M25.7834 14.388V15.6713C25.7834 16.3713 25.3167 16.838 24.7334 16.9546L23.2167 17.188C22.9834 18.1214 22.6334 19.0546 22.05 19.8713L22.9834 21.1546C23.3334 21.6213 23.3334 22.4379 22.8667 22.9046L21.9334 23.838C21.4667 24.3047 20.7667 24.3046 20.1834 23.9546L18.9 23.0214C18.0834 23.488 17.15 23.9547 16.2167 24.188L15.9834 25.7046C15.8667 26.288 15.2834 26.7547 14.7 26.7547H13.4167C12.7167 26.7547 12.25 26.288 12.1334 25.7046L11.9 24.188C10.9667 23.9547 10.0334 23.6047 9.2167 23.0214L7.93337 23.9546C7.46671 24.3046 6.65004 24.3047 6.18337 23.838L5.25004 22.9046C4.78337 22.4379 4.78337 21.7379 5.13337 21.1546L6.0667 19.8713C5.60004 19.0546 5.13337 18.1214 4.90004 17.188L3.38337 16.9546C2.80004 16.838 2.33337 16.2547 2.33337 15.6713V14.388C2.33337 13.688 2.80004 13.2214 3.38337 13.1047L4.90004 12.8713C5.13337 11.938 5.48337 11.0047 6.0667 10.188L5.13337 8.9046C4.78337 8.43794 4.78337 7.62127 5.25004 7.1546L6.18337 6.22135C6.65004 5.75469 7.35004 5.75472 7.93337 6.10472L9.2167 7.03796C10.0334 6.5713 10.9667 6.10463 11.9 5.8713L12.1334 4.35472C12.25 3.77138 12.8334 3.30469 13.4167 3.30469H14.7C15.4 3.30469 15.8667 3.77138 15.9834 4.35472L16.2167 5.8713C17.15 6.10463 18.0834 6.45463 18.9 7.03796L20.1834 6.10472C20.65 5.75472 21.4667 5.75469 21.9334 6.22135L22.8667 7.1546C23.3334 7.62127 23.3334 8.32127 22.9834 8.9046L22.05 10.188C22.5167 11.0047 22.9834 11.938 23.2167 12.8713L24.7334 13.1047C25.3167 13.2214 25.7834 13.8047 25.7834 14.388ZM14.1167 11.0047C11.9 11.0047 10.0334 12.8713 10.0334 15.088C10.0334 17.3047 11.9 19.1713 14.1167 19.1713C16.3334 19.1713 18.2 17.3047 18.2 15.088C18.2 12.8713 16.3334 11.0047 14.1167 11.0047Z" fill="#FFF2D0"/>
<path d="M19.9499 15.0882C19.9499 18.3549 17.3832 20.9216 14.1165 20.9216C10.8499 20.9216 8.2832 18.3549 8.2832 15.0882C8.2832 11.8215 10.8499 9.25488 14.1165 9.25488C17.3832 9.25488 19.9499 11.8215 19.9499 15.0882ZM14.1165 12.7549C12.8332 12.7549 11.7832 13.8049 11.7832 15.0882C11.7832 16.3715 12.8332 17.4216 14.1165 17.4216C15.3999 17.4216 16.4499 16.3715 16.4499 15.0882C16.4499 13.8049 15.3999 12.7549 14.1165 12.7549Z" fill="#FFF2D0"/>
</svg>
