<svg width="22" height="22" viewBox="0 0 22 22" fill="none" xmlns="http://www.w3.org/2000/svg">
<path d="M19.182 17.3756L16.4695 14.6631C15.857 15.6256 14.982 16.5006 14.0195 17.1131L16.732 19.8256C17.082 20.1756 17.607 20.1756 17.957 19.8256L19.182 18.6006C19.532 18.2506 19.532 17.7256 19.182 17.3756Z" fill="#FFF2D0"/>
<path opacity="0.3" d="M9.81958 18.3379C5.44458 18.3379 1.94458 14.8379 1.94458 10.4629C1.94458 6.08789 5.44458 2.58789 9.81958 2.58789C14.1946 2.58789 17.6946 6.08789 17.6946 10.4629C17.6946 14.8379 14.1946 18.3379 9.81958 18.3379ZM9.81958 4.33789C6.40708 4.33789 3.69458 7.05039 3.69458 10.4629C3.69458 13.8754 6.40708 16.5879 9.81958 16.5879C13.2321 16.5879 15.9446 13.8754 15.9446 10.4629C15.9446 7.05039 13.2321 4.33789 9.81958 4.33789ZM7.19458 10.4629C7.19458 8.97539 8.33208 7.83789 9.81958 7.83789C10.3446 7.83789 10.6946 7.48789 10.6946 6.96289C10.6946 6.43789 10.3446 6.08789 9.81958 6.08789C7.36958 6.08789 5.44458 8.01289 5.44458 10.4629C5.44458 10.9879 5.79458 11.3379 6.31958 11.3379C6.84458 11.3379 7.19458 10.9879 7.19458 10.4629Z" fill="#FFF2D0"/>
</svg>
