<svg width="16" height="17" viewBox="0 0 16 17" fill="none" xmlns="http://www.w3.org/2000/svg">
<g clip-path="url(#clip0_3718_3896)">
<path d="M8 0.686035C6.41775 0.686035 4.87103 1.15523 3.55544 2.03428C2.23985 2.91333 1.21447 4.16276 0.608967 5.62457C0.00346626 7.08637 -0.15496 8.69491 0.153721 10.2468C0.462403 11.7986 1.22433 13.2241 2.34315 14.3429C3.46197 15.4617 4.88743 16.2236 6.43928 16.5323C7.99113 16.841 9.59966 16.6826 11.0615 16.0771C12.5233 15.4716 13.7727 14.4462 14.6518 13.1306C15.5308 11.815 16 10.2683 16 8.68603C16 6.5643 15.1571 4.52947 13.6569 3.02918C12.1566 1.52889 10.1217 0.686035 8 0.686035ZM8 4.1146C8.16953 4.1146 8.33525 4.16488 8.4762 4.25906C8.61716 4.35324 8.72702 4.48711 8.7919 4.64373C8.85677 4.80036 8.87375 4.9727 8.84067 5.13897C8.8076 5.30524 8.72596 5.45797 8.60609 5.57784C8.48622 5.69771 8.33349 5.77935 8.16722 5.81242C8.00095 5.84549 7.82861 5.82852 7.67199 5.76364C7.51536 5.69877 7.3815 5.58891 7.28731 5.44795C7.19313 5.30699 7.14286 5.14127 7.14286 4.97175C7.14286 4.74442 7.23316 4.5264 7.39391 4.36566C7.55465 4.20491 7.77267 4.1146 8 4.1146ZM10.2857 13.3289H5.71429V12.0432H7.35714V8.75746H6.28572V7.47175H8.64286V12.0432H10.2857V13.3289Z" fill="#A23842"/>
</g>
<defs>
<clipPath id="clip0_3718_3896">
<rect width="16" height="16" fill="white" transform="translate(0 0.686035)"/>
</clipPath>
</defs>
</svg>
