<svg width="52" height="51" viewBox="0 0 52 51" fill="none" xmlns="http://www.w3.org/2000/svg">
<path d="M19.1426 3.53946C22.3439 -0.968883 29.0659 -0.968881 32.2672 3.53946C33.8685 5.79444 36.5261 7.06769 39.2966 6.9072C44.8356 6.58633 49.0267 11.8147 47.4797 17.1156C46.7059 19.767 47.3623 22.628 49.2158 24.6829C52.9215 28.7911 51.4257 35.3107 46.2953 37.4126C43.7292 38.4638 41.89 40.7582 41.4308 43.481C40.5127 48.9248 34.4565 51.8263 29.6059 49.1463C27.1798 47.8058 24.23 47.8058 21.8039 49.1463C16.9533 51.8263 10.8971 48.9248 9.97898 43.481C9.51976 40.7582 7.68063 38.4638 5.11449 37.4126C-0.01594 35.3107 -1.51171 28.7911 2.19398 24.6829C4.04749 22.628 4.70387 19.767 3.93009 17.1156C2.3831 11.8147 6.57416 6.58633 12.1132 6.9072C14.8837 7.06769 17.5413 5.79444 19.1426 3.53946Z" fill="#011F42"/>
</svg>
