<svg width="18" height="18" viewBox="0 0 18 18" fill="none" xmlns="http://www.w3.org/2000/svg">
<path opacity="0.5" d="M9.35803 0.493164C7.0675 0.493164 4.8708 1.40305 3.25113 3.02261C1.63156 4.64228 0.72168 6.83901 0.72168 9.12951C0.72168 11.42 1.63156 13.6167 3.25113 15.2364C4.8708 16.856 7.06753 17.7659 9.35803 17.7659C11.6485 17.7659 13.8453 16.856 15.4649 15.2364C17.0845 13.6167 17.9944 11.42 17.9944 9.12951C17.9944 7.61354 17.5953 6.12429 16.8373 4.81139C16.0794 3.49848 14.9892 2.40827 13.6762 1.65029C12.3633 0.892307 10.8741 0.493263 9.35812 0.493263L9.35803 0.493164ZM9.35803 15.4627C7.67832 15.4627 6.06737 14.7954 4.87968 13.6077C3.69192 12.4199 3.02468 10.8091 3.02468 9.12931C3.02468 7.44951 3.69192 5.83866 4.87968 4.65097C6.06744 3.46321 7.67822 2.79597 9.35803 2.79597C11.0378 2.79597 12.6487 3.46321 13.8364 4.65097C15.0241 5.83872 15.6914 7.44951 15.6914 9.12931C15.6914 10.8091 15.0241 12.42 13.8364 13.6077C12.6486 14.7954 11.0378 15.4627 9.35803 15.4627Z" fill="#FEA87E"/>
<path d="M9.35799 3.94824C7.98365 3.94824 6.66571 4.49418 5.69391 5.46589C4.72221 6.43772 4.17627 7.75566 4.17627 9.12996C4.17627 10.5043 4.72221 11.8222 5.69391 12.794C6.66575 13.7657 7.98369 14.3117 9.35799 14.3117C10.7323 14.3117 12.0503 13.7657 13.0221 12.794C13.9938 11.8222 14.5397 10.5043 14.5397 9.12996C14.5397 7.75566 13.9938 6.43769 13.0221 5.46589C12.0502 4.49418 10.7323 3.94824 9.35799 3.94824ZM11.494 11.2662C11.386 11.3752 11.2388 11.4365 11.0852 11.4365C10.9317 11.4365 10.7845 11.3752 10.6764 11.2662L8.94917 9.53894C8.84148 9.43021 8.78133 9.28319 8.78223 9.13012V6.25137C8.78223 6.04562 8.89198 5.85555 9.0701 5.75274C9.24823 5.64993 9.46773 5.64993 9.64585 5.75274C9.82397 5.85555 9.93373 6.04563 9.93373 6.25137V8.89403L11.494 10.4486C11.603 10.5566 11.6643 10.7038 11.6643 10.8574C11.6643 11.011 11.603 11.1581 11.494 11.2662H11.494Z" fill="#FEA87E"/>
</svg>
