<svg width="24" height="23" viewBox="0 0 24 23" fill="none" xmlns="http://www.w3.org/2000/svg">
<g clip-path="url(#clip0_1355_3987)">
<path opacity="0.25" d="M3.27722 4.10634C3.27722 2.54339 4.54424 1.27637 6.10719 1.27637H15.3115C16.0621 1.27637 16.7819 1.57452 17.3126 2.10525L19.4282 4.22078C19.9589 4.75151 20.257 5.47132 20.257 6.22187V19.1995C20.257 20.7625 18.99 22.0295 17.4271 22.0295H6.10719C4.54424 22.0295 3.27722 20.7625 3.27722 19.1995V4.10634Z" fill="#422438"/>
<path d="M14.5971 2.11763C14.5971 1.65301 14.9738 1.27637 15.4384 1.27637V1.27637C16.1077 1.27637 16.7497 1.54227 17.223 2.01557L19.5179 4.31046C19.9912 4.78377 20.257 5.4257 20.257 6.09505V6.09505C20.257 6.55966 19.8804 6.93631 19.4158 6.93631H15.5404C15.0194 6.93631 14.5971 6.51397 14.5971 5.99299V2.11763Z" fill="#422438"/>
<path d="M11.406 8.89433C11.2948 8.94037 11.1905 9.0086 11.1001 9.09905L8.27013 11.929C7.90174 12.2974 7.90174 12.8947 8.27013 13.2631C8.63852 13.6315 9.2358 13.6315 9.60419 13.2631L10.8238 12.0435V16.3693C10.8238 16.8903 11.2461 17.3127 11.7671 17.3127C12.2881 17.3127 12.7105 16.8903 12.7105 16.3693V12.0435L13.9301 13.2631C14.2985 13.6315 14.8957 13.6315 15.2641 13.2631C15.6325 12.8947 15.6325 12.2974 15.2641 11.929L12.4342 9.09905C12.1562 8.8211 11.748 8.75286 11.406 8.89433Z" fill="#422438"/>
</g>
<defs>
<clipPath id="clip0_1355_3987">
<rect width="22.6398" height="22.6398" fill="white" transform="translate(0.447266 0.333008)"/>
</clipPath>
</defs>
</svg>
