<svg width="80" height="49" viewBox="0 0 80 49" fill="none" xmlns="http://www.w3.org/2000/svg">
<rect y="0.599609" width="80" height="48" rx="6" fill="#F6F8FA"/>
<path d="M36.71 34.2829H32.059L34.9658 15.9276H39.6174L36.71 34.2829ZM28.1462 15.9276L23.712 28.5525L23.1874 25.8339L23.1878 25.8349L21.6228 17.5803C21.6228 17.5803 21.4336 15.9276 19.4165 15.9276H12.086L12 16.2384C12 16.2384 14.2417 16.7176 16.8652 18.3364L20.906 34.2834H25.7521L33.1518 15.9276H28.1462ZM64.7293 34.2829H69L65.2765 15.9271H61.5376C59.8111 15.9271 59.3906 17.295 59.3906 17.295L52.4538 34.2829H57.3023L58.2719 31.5564H64.1845L64.7293 34.2829ZM59.6113 27.79L62.0552 20.921L63.43 27.79H59.6113ZM52.8175 20.3416L53.4813 16.3999C53.4813 16.3999 51.4331 15.5996 49.298 15.5996C46.9899 15.5996 41.5088 16.6361 41.5088 21.6762C41.5088 26.4182 47.9418 26.4771 47.9418 28.9679C47.9418 31.4587 42.1716 31.0124 40.2673 29.4417L39.5758 33.5631C39.5758 33.5631 41.6526 34.5996 44.8257 34.5996C47.9996 34.5996 52.7879 32.9111 52.7879 28.3154C52.7879 23.5429 46.297 23.0986 46.297 21.0236C46.2975 18.9482 50.8272 19.2148 52.8175 20.3416Z" fill="#2566AF"/>
<path d="M23.1878 25.8345L21.6228 17.5799C21.6228 17.5799 21.4336 15.9272 19.4165 15.9272H12.086L12 16.238C12 16.238 15.5233 16.9883 18.9028 19.7992C22.1341 22.4859 23.1878 25.8345 23.1878 25.8345Z" fill="#E6A540"/>
</svg>
