<svg width="28" height="29" viewBox="0 0 28 29" fill="none" xmlns="http://www.w3.org/2000/svg">
<path opacity="0.3" d="M4.73008 18.3783C9.73625 9.71001 15.8414 4.45417 24.4164 2.99701C24.5852 2.9669 24.7587 2.97801 24.9222 3.02939C25.0857 3.08077 25.2344 3.1709 25.3556 3.29211C25.4768 3.41331 25.567 3.56201 25.6184 3.72554C25.6697 3.88907 25.6808 4.06259 25.6507 4.23134C24.1936 12.8063 18.9377 18.9115 10.2694 23.9177L4.73008 18.3783ZM4.45591 20.8738L3.07224 24.5033C3.01512 24.6531 3.00254 24.8162 3.03604 24.9729C3.06953 25.1297 3.14766 25.2734 3.261 25.3868C3.37434 25.5001 3.51805 25.5782 3.6748 25.6117C3.83156 25.6452 3.99465 25.6326 4.14441 25.5755L7.77625 24.1907L4.45591 20.8738ZM19.2504 7.64501C18.9043 7.64501 18.5659 7.74764 18.2782 7.93994C17.9904 8.13223 17.7661 8.40554 17.6336 8.72531C17.5012 9.04508 17.4665 9.39695 17.534 9.73642C17.6016 10.0759 17.7682 10.3877 18.013 10.6324C18.2577 10.8772 18.5695 11.0439 18.909 11.1114C19.2485 11.1789 19.6003 11.1442 19.9201 11.0118C20.2399 10.8793 20.5132 10.655 20.7055 10.3673C20.8978 10.0795 21.0004 9.74112 21.0004 9.39501C21.0004 8.93088 20.816 8.48576 20.4878 8.15757C20.1597 7.82938 19.7145 7.64501 19.2504 7.64501Z" fill="#FFF2D0"/>
<path d="M4.72998 18.3789L2.62181 16.2707C2.51426 16.1632 2.43309 16.0322 2.38465 15.888C2.33621 15.7438 2.32183 15.5904 2.34262 15.4398C2.36342 15.2891 2.41883 15.1453 2.50451 15.0197C2.59019 14.894 2.70382 14.7899 2.83647 14.7155L10.6788 10.3184C8.36916 12.748 6.37086 15.4556 4.72998 18.3789ZM10.267 23.9159L12.3751 26.024C12.4827 26.1316 12.6137 26.2127 12.7578 26.2612C12.902 26.3096 13.0554 26.324 13.2061 26.3032C13.3567 26.2824 13.5005 26.227 13.6262 26.1413C13.7518 26.0556 13.8559 25.942 13.9303 25.8094L18.3275 17.9659C15.8981 20.2762 13.1905 22.2749 10.267 23.9159ZM8.21364 21.8614L14.6805 15.3945C14.8611 15.2029 14.96 14.9483 14.9561 14.685C14.9522 14.4216 14.8458 14.1701 14.6596 13.9839C14.4734 13.7977 14.2219 13.6913 13.9585 13.6874C13.6952 13.6835 13.4406 13.7824 13.249 13.963L6.78214 20.4299L8.21364 21.8614Z" fill="#FFF2D0"/>
</svg>
