<svg width="29" height="29" viewBox="0 0 29 29" fill="none" xmlns="http://www.w3.org/2000/svg">
<path opacity="0.3" d="M5.66367 17.7343C10.6698 9.06596 16.775 3.81013 25.35 2.35296C25.5188 2.32286 25.6923 2.33397 25.8558 2.38535C26.0193 2.43673 26.168 2.52686 26.2892 2.64806C26.4104 2.76927 26.5006 2.91797 26.552 3.0815C26.6033 3.24503 26.6144 3.41855 26.5843 3.5873C25.1272 12.1623 19.8713 18.2675 11.203 23.2736L5.66367 17.7343ZM5.38951 20.2298L4.00584 23.8593C3.94871 24.0091 3.93614 24.1722 3.96963 24.3289C4.00312 24.4857 4.08125 24.6294 4.19459 24.7427C4.30793 24.8561 4.45165 24.9342 4.6084 24.9677C4.76515 25.0012 4.92824 24.9886 5.078 24.9315L8.70984 23.5466L5.38951 20.2298ZM20.184 7.00096C19.8379 7.00096 19.4995 7.1036 19.2118 7.29589C18.924 7.48819 18.6997 7.7615 18.5672 8.08127C18.4348 8.40104 18.4001 8.75291 18.4676 9.09237C18.5352 9.43184 18.7018 9.74366 18.9466 9.9884C19.1913 10.2331 19.5031 10.3998 19.8426 10.4673C20.1821 10.5349 20.5339 10.5002 20.8537 10.3678C21.1735 10.2353 21.4468 10.011 21.6391 9.72321C21.8314 9.43543 21.934 9.09708 21.934 8.75096C21.934 8.28684 21.7496 7.84172 21.4214 7.51353C21.0933 7.18534 20.6481 7.00096 20.184 7.00096Z" fill="#422437"/>
<path d="M5.66357 17.7343L3.5554 15.6261C3.44786 15.5186 3.36668 15.3876 3.31825 15.2434C3.26981 15.0993 3.25542 14.9458 3.27622 14.7952C3.29701 14.6445 3.35242 14.5007 3.43811 14.3751C3.52379 14.2494 3.63741 14.1453 3.77007 14.0709L11.6124 9.67378C9.30275 12.1034 7.30445 14.8111 5.66357 17.7343ZM11.2006 23.2713L13.3087 25.3794C13.4163 25.487 13.5473 25.5682 13.6914 25.6166C13.8356 25.665 13.989 25.6794 14.1397 25.6586C14.2903 25.6378 14.4341 25.5824 14.5598 25.4967C14.6854 25.4111 14.7895 25.2974 14.8639 25.1648L19.2611 17.3213C16.8317 19.6316 14.1241 21.6304 11.2006 23.2713ZM9.14724 21.2168L15.6141 14.7499C15.7947 14.5583 15.8936 14.3038 15.8897 14.0404C15.8858 13.777 15.7794 13.5256 15.5932 13.3393C15.407 13.1531 15.1555 13.0467 14.8921 13.0428C14.6288 13.0389 14.3742 13.1378 14.1826 13.3184L7.71573 19.7853L9.14724 21.2168Z" fill="#422437"/>
</svg>
